<?xml version="1.0" encoding="UTF-8"?>
<svg id="Lag_1" xmlns="http://www.w3.org/2000/svg" version="1.1" viewBox="0 0 2500 2500">
  <!-- Generator: Adobe Illustrator 30.0.0, SVG Export Plug-In . SVG Version: 2.1.1 Build 123)  -->
  <defs>
    <style>
      .st0 {
        stroke-miterlimit: 10;
      }

      .st0, .st1 {
        fill: #fff;
        fill-rule: evenodd;
        stroke: #fff;
      }

      .st1 {
        stroke-miterlimit: 33.89;
        stroke-width: 4.8px;
      }
    </style>
  </defs>
  <path class="st1" d="M621.23,1396.2l287.72-292.43,245.14,243.92,125.79-124.68,2.68,104.72-408.91,407.59-52.5-52.14,66.98-63.02-190.93-195.4-70.53,68.01-5.45-96.57h0Z"/>
  <path class="st1" d="M1868.39,1020.81h407.09v91.58h-64.24v326.42l251.09-137.38.91,239.84h-597.14v-94.77h66.98l.43-334.11h-64.67l-.45-91.58Z"/>
  <path class="st1" d="M873.66,1082.47c86.85,0,158.3-71.63,158.3-159.15s-71.45-158.65-158.3-158.65-158.8,71.17-158.8,158.65,71.05,159.15,158.8,159.15Z"/>
  <path class="st1" d="M39.04,1026.73h406.69v91.55h-63.82v326.41l251.09-137.35.43,239.81H36.76v-94.3h66.51l.48-334.57H38.61l.43-91.55h0Z"/>
  <path class="st0" d="M1625.02,1540.37h-423.86v-92.03h71.9l-1.36-332.77h-71.9v-90.23h427.46c123.95-.44,222.56,86.15,223.94,256.58-.89,175.96-110.37,258.45-226.17,258.45h0ZM1540.39,1379.4c49.35-.43,90.52-28.55,90.94-104.24,0-73.46-42.5-105.64-90-105.64l-.95,209.88h0Z"/>
</svg>