<?xml version="1.0" encoding="UTF-8"?>
<svg id="Lag_1" data-name="Lag 1" xmlns="http://www.w3.org/2000/svg" viewBox="0 0 455.8 168.8">
  <g>
    <path d="M69.24,92.94c1.12-1.7,1.95-3.38,2.48-5.04.53-1.66.78-2.97.73-3.94-.05-.97-.42-1.51-1.1-1.61-.68-.1-1.71.54-3.07,1.9-1.27,1.27-3.31,1.9-6.13,1.9s-6.06-.27-9.71-.8c-3.65-.53-7.55-1.17-11.69-1.9-4.14-.73-8.16-1.19-12.05-1.39,3.41-4.97,7.16-10.76,11.25-17.38,4.09-6.62,8.06-13.46,11.91-20.52,3.85-7.06,7.35-14,10.52-20.82,3.16-6.82,5.53-12.9,7.08-18.26.39-1.36.19-2.46-.58-3.29-.78-.83-1.92-1.36-3.43-1.61-1.51-.24-3.21-.24-5.11,0-1.9.24-3.75.73-5.55,1.46-1.8.73-3.43,1.68-4.89,2.85-1.46,1.17-2.43,2.48-2.92,3.94-1.75,5.16-3.68,10.44-5.77,15.85-2.1,5.41-4.26,10.71-6.5,15.92-2.24,5.21-4.53,10.2-6.87,14.97-2.34,4.77-4.6,9.08-6.79,12.93-2.19,3.85-4.26,7.08-6.21,9.71-1.95,2.63-3.65,4.43-5.11,5.4-2.73.88-4.85,2.05-6.35,3.51-1.51,1.46-2.51,3.02-2.99,4.67-.49,1.66-.49,3.26,0,4.82.49,1.56,1.31,2.87,2.48,3.94,1.17,1.07,2.68,1.8,4.53,2.19,1.85.39,3.89.19,6.13-.59,1.36-.49,2.6-1.24,3.72-2.26,1.12-1.02,2.17-2.17,3.14-3.43,3.12-.68,6.4-.63,9.86.15,3.46.78,6.87,1.66,10.23,2.63,3.36.97,6.62,1.8,9.79,2.48,3.16.68,6.06.63,8.69-.15,2.24-.78,4.24-1.92,5.99-3.43,1.75-1.51,3.19-3.12,4.31-4.82Z" fill="#163358"/>
    <path d="M274.1,81.76c-3.21,2.24-6.5,3.87-9.86,4.89-3.36,1.02-6.45,1.53-9.28,1.53s-5.28-.53-7.38-1.61c-2.1-1.07-3.48-2.58-4.16-4.53,5.16.1,9.91-.78,14.24-2.63,4.33-1.85,7.94-4.16,10.81-6.94,2.87-2.78,4.89-5.77,6.06-8.98,1.17-3.21,1.26-6.14.29-8.76-.88-2.14-2.31-3.82-4.31-5.04-2-1.22-4.31-1.95-6.94-2.19-2.63-.24-5.48-.05-8.54.58-3.07.63-6.06,1.8-8.98,3.51-2.92,1.71-5.67,3.9-8.25,6.57-2.58,2.68-4.7,5.87-6.35,9.57-1.75,3.99-2.7,7.72-2.85,11.17-.04,1.01-.02,1.98.06,2.92-.04.02-.08.04-.13.07-2.14,1.17-4.38,1.95-6.72,2.34-2.34.39-3.99.54-4.97.44-1.27-.19-2.51-1.02-3.72-2.48-1.22-1.46-2.36-3.02-3.43-4.67-1.17-1.95-2.29-4.14-3.36-6.57,3.99-2.24,8.08-4.6,12.27-7.08,4.19-2.48,8.13-4.55,11.83-6.21,1.17-.58,1.44-1.44.8-2.56-.63-1.12-1.7-2.14-3.21-3.07-1.51-.92-3.24-1.56-5.19-1.9-1.95-.34-3.7-.07-5.26.8-1.07.58-2.34,1.41-3.8,2.48-1.46,1.07-2.99,2.22-4.6,3.43-1.61,1.22-3.24,2.51-4.89,3.87-1.66,1.36-3.17,2.68-4.53,3.94,2.14-4.58,4.31-9.15,6.5-13.73,2.19-4.58,4.21-8.76,6.06-12.56,1.85-3.8,3.38-6.96,4.6-9.49,1.22-2.53,1.92-4.04,2.12-4.53.39-.78.02-1.39-1.1-1.83-1.12-.44-2.48-.68-4.09-.73-1.61-.05-3.19.15-4.75.58-1.56.44-2.58,1.15-3.07,2.12-.39.68-1.34,2.51-2.85,5.48-1.51,2.97-3.34,6.62-5.48,10.96-2.14,4.33-4.46,9.03-6.94,14.1-2.48,5.06-4.84,10.06-7.08,14.97-1.93,4.23-3.64,8.17-5.17,11.86-.03.02-.06.03-.09.05-2.14,1.17-4.38,1.95-6.72,2.34-2.34.39-3.99.54-4.97.44-1.27-.19-2.51-1.02-3.72-2.48-1.22-1.46-2.36-3.02-3.43-4.67-1.17-1.95-2.29-4.14-3.36-6.57,3.99-2.24,8.08-4.6,12.27-7.08,4.19-2.48,8.13-4.55,11.83-6.21,1.17-.58,1.44-1.44.8-2.56-.63-1.12-1.71-2.14-3.21-3.07-1.51-.92-3.24-1.56-5.19-1.9-1.95-.34-3.7-.07-5.26.8-1.07.58-2.34,1.41-3.8,2.48-1.46,1.07-2.99,2.22-4.6,3.43-1.61,1.22-3.24,2.51-4.89,3.87-1.66,1.36-3.17,2.68-4.53,3.94,2.14-4.58,4.31-9.15,6.5-13.73,2.19-4.58,4.21-8.76,6.06-12.56,1.85-3.8,3.38-6.96,4.6-9.49,1.22-2.53,1.92-4.04,2.12-4.53.39-.78.02-1.39-1.1-1.83-1.12-.44-2.48-.68-4.09-.73-1.61-.05-3.19.15-4.75.58-1.56.44-2.58,1.15-3.07,2.12-.39.68-1.34,2.51-2.85,5.48-1.51,2.97-3.34,6.62-5.48,10.96-2.14,4.33-4.46,9.03-6.94,14.1-2.48,5.06-4.85,10.06-7.08,14.97-1.93,4.23-3.64,8.16-5.17,11.85-.03.02-.06.03-.09.05-3.41,2.04-6.19,3.46-8.33,4.24-2.14.78-4.19,1.27-6.13,1.46,1.56-3.8,3.02-7.74,4.38-11.83.58-1.75,1.41-3.72,2.48-5.92,1.07-2.19,2.21-4.46,3.43-6.79,1.22-2.34,2.51-4.65,3.87-6.94,1.36-2.29,2.68-4.36,3.94-6.21.49-.68.24-1.24-.73-1.68-.97-.44-2.24-.66-3.8-.66s-3.16.2-4.82.58c-1.66.39-2.87.97-3.65,1.75-.58.58-1.39,1.68-2.41,3.29-1.02,1.61-2.14,3.48-3.36,5.62-1.22,2.14-2.44,4.36-3.65,6.65-1.22,2.29-2.26,4.36-3.14,6.21-1.95,2.73-4.04,5.02-6.28,6.87-2.24,1.85-4.19,3.07-5.84,3.65-1.66.58-2.9.39-3.73-.58-.83-.97-.85-2.92-.07-5.84.39-1.56,1.07-3.43,2.04-5.62.97-2.19,2.09-4.48,3.36-6.87,1.26-2.38,2.58-4.75,3.94-7.08,1.36-2.34,2.68-4.43,3.94-6.28.58-.68.37-1.24-.66-1.68-1.02-.44-2.31-.66-3.87-.66s-3.17.2-4.82.58c-1.66.39-2.87.97-3.65,1.75-.59.68-1.46,1.9-2.63,3.65-1.17,1.75-2.36,3.75-3.58,5.99-1.22,2.24-2.44,4.53-3.65,6.87-1.22,2.34-2.17,4.38-2.85,6.13-1.37,3.51-2.17,6.84-2.41,10.01-.24,3.17.31,5.72,1.68,7.67-5.06,2.14-8.81,4.87-11.25,8.18-2.43,3.31-3.65,6.52-3.65,9.64s1.24,5.77,3.72,7.96c2.48,2.19,6.06,3.29,10.74,3.29,3.99,0,7.64-.58,10.95-1.75,3.31-1.17,6.3-2.78,8.98-4.82,2.68-2.04,5.09-4.46,7.23-7.23,2.14-2.78,4.09-5.87,5.84-9.28,2.14-.19,4.36-.75,6.65-1.68,2.29-.92,4.79-2.41,7.52-4.45.58-.47,1.12-.95,1.63-1.42-.7,1.91-1.25,3.56-1.63,4.92-.19.78.32,1.39,1.53,1.83,1.22.44,2.63.68,4.24.73,1.61.05,3.16-.12,4.67-.51,1.51-.39,2.41-1.07,2.7-2.04.49-1.65,1.39-4.11,2.7-7.38,1.31-3.26,2.9-6.94,4.75-11.03.49,1.75,1.17,3.75,2.04,5.99.88,2.24,1.92,4.38,3.14,6.43,1.22,2.05,2.56,3.85,4.02,5.4,1.46,1.56,3.07,2.48,4.82,2.78,2.34.39,4.65.17,6.94-.66,2.29-.83,4.43-1.9,6.43-3.21,1.29-.85,2.46-1.75,3.55-2.7-.61,1.69-1.09,3.15-1.43,4.38-.19.78.32,1.39,1.53,1.83,1.22.44,2.63.68,4.24.73,1.61.05,3.16-.12,4.67-.51,1.51-.39,2.41-1.07,2.7-2.04.49-1.65,1.39-4.11,2.7-7.38,1.31-3.26,2.9-6.94,4.75-11.03.49,1.75,1.17,3.75,2.05,5.99.88,2.24,1.92,4.38,3.14,6.43,1.22,2.05,2.56,3.85,4.02,5.4,1.46,1.56,3.07,2.48,4.82,2.78,2.34.39,4.65.17,6.94-.66,2.29-.83,4.43-1.9,6.43-3.21,1.99-1.31,3.75-2.75,5.26-4.31.72-.75,1.35-1.44,1.88-2.09.26.9.57,1.77.96,2.6,1.26,2.68,3.24,4.87,5.92,6.57,2.68,1.7,5.92,2.8,9.71,3.29,3.7.49,7.18.27,10.44-.66,3.26-.92,6.23-2.17,8.91-3.72,2.68-1.56,4.94-3.26,6.79-5.11,1.12-1.12,2.03-2.13,2.79-3.07-.28-1.18-.45-2.45-.51-3.8-.08.05-.16.1-.24.15ZM248.53,65.99c1.85-2.04,3.77-3.7,5.77-4.97,2-1.26,3.87-2.09,5.62-2.48,1.75-.39,3.02-.19,3.8.58.88.88.92,2.07.15,3.58-.78,1.51-2.12,2.99-4.02,4.45-1.9,1.46-4.21,2.75-6.94,3.87-2.73,1.12-5.65,1.73-8.76,1.83,1.07-2.53,2.53-4.82,4.38-6.87ZM87.13,103.89c-2.53,1.8-5.26,2.51-8.18,2.12-2.04-.29-3.21-.95-3.51-1.97-.29-1.02.12-2.12,1.24-3.29,1.12-1.17,2.87-2.29,5.26-3.36,2.39-1.07,5.19-1.75,8.4-2.05,1.46-.1,2.92-.1,4.38,0-2.53,3.89-5.06,6.74-7.6,8.55Z" fill="#163358"/>
  </g>
  <g>
    <path d="M333.98,45.39c1.75,0,3.41-.46,4.97-1.39,1.56-.92,2.9-2.09,4.02-3.51,1.12-1.41,2-2.94,2.63-4.6.63-1.66.9-3.19.8-4.6-.1-1.41-.54-2.58-1.32-3.51-.78-.92-2.04-1.39-3.8-1.39-2.63,0-4.92,1-6.87,2.99-1.95,2-3.36,4.16-4.24,6.5-.88,2.34-1.07,4.5-.58,6.5.49,2,1.95,2.99,4.38,2.99Z" fill="#163358"/>
    <path d="M447.45,81.91v.02c-4.37,2.61-7.46,3.27-9.25,1.96-1.8-1.32-1.97-4.02-.51-8.11.58-1.75,1.39-3.72,2.41-5.92,1.02-2.19,2.17-4.46,3.43-6.79,1.26-2.34,2.56-4.65,3.87-6.94,1.31-2.29,2.6-4.36,3.87-6.21.58-.68.37-1.24-.66-1.68-1.02-.44-2.31-.66-3.87-.66s-3.17.2-4.82.58c-1.66.39-2.87.97-3.65,1.75-.39.29-1.02,1.12-1.9,2.48l-1.32-2.04c-1.56-1.85-3.58-3.04-6.06-3.58-2.48-.53-5.16-.46-8.03.22-2.87.68-5.84,1.95-8.91,3.8-3.07,1.85-6.01,4.24-8.84,7.16-2.83,2.92-5.19,6.04-7.08,9.35-1.9,3.31-3.26,6.52-4.09,9.64-.45,1.68-.72,3.31-.84,4.9-.04.03-.07.04-.11.07-2.83,1.75-5.28,3.14-7.38,4.16-2.1,1.02-4.02,1.78-5.77,2.26.78-2.04,1.56-4.11,2.34-6.21.78-2.09,1.56-4.21,2.34-6.35.58-1.75,1.39-3.72,2.41-5.92,1.02-2.19,2.14-4.46,3.36-6.79,1.22-2.34,2.48-4.65,3.8-6.94,1.31-2.29,2.6-4.36,3.87-6.21.58-.68.37-1.24-.66-1.68-1.02-.44-2.31-.66-3.87-.66s-3.17.2-4.82.58c-1.66.39-2.87.97-3.65,1.75-.2.29-.46.63-.8,1.02-.34.39-.71.88-1.1,1.46-.2-.39-.42-.73-.66-1.02-.24-.29-.46-.63-.66-1.02-1.56-1.85-3.56-3.04-5.99-3.58-2.43-.53-5.09-.46-7.96.22-2.87.68-5.84,1.95-8.91,3.8-3.07,1.85-6.01,4.24-8.84,7.16-2.83,2.92-5.19,6.04-7.08,9.35-1.9,3.31-3.26,6.52-4.09,9.64-.42,1.57-.69,3.09-.82,4.57-.22.11-.45.24-.71.39-4.38,2.63-7.47,3.29-9.28,1.97-1.8-1.32-1.97-4.02-.51-8.11,1.36-3.51,2.99-7.23,4.89-11.17,1.9-3.94,4.11-7.76,6.65-11.47.58-.78.37-1.36-.66-1.75-1.02-.39-2.31-.58-3.87-.58s-3.16.17-4.82.51c-1.66.34-2.87.9-3.65,1.68-.68.68-1.53,1.83-2.56,3.43-1.02,1.61-2.07,3.43-3.14,5.48-1.07,2.05-2.12,4.16-3.14,6.35-1.02,2.19-1.88,4.16-2.56,5.92-1.07,2.53-1.97,5.06-2.7,7.6,0,.01,0,.02,0,.04-.07.04-.13.07-.21.11-2.34,1.27-4.72,2.24-7.16,2.92-2.44.68-4.65.88-6.65.58-2-.29-3.63-1.14-4.89-2.56-1.27-1.41-1.9-3.63-1.9-6.65,3.8-3.21,7.6-6.72,11.39-10.52,3.8-3.8,7.35-7.64,10.66-11.54,3.31-3.89,6.18-7.72,8.62-11.47,2.43-3.75,4.19-7.2,5.26-10.37,1.07-3.16,1.29-5.92.66-8.25-.63-2.34-2.41-4.04-5.33-5.11-3.12-1.07-6.55-.63-10.3,1.31-3.75,1.95-7.47,4.87-11.17,8.76-3.7,3.9-7.23,8.45-10.59,13.66-3.36,5.21-6.21,10.54-8.54,16-2.34,5.45-3.99,10.66-4.97,15.63-.52,2.66-.72,5.09-.63,7.3.06,1.35.22,2.62.51,3.8.12.5.26.99.42,1.46,1.07,3.41,2.97,6.09,5.7,8.03,2.72,1.95,5.74,2.92,9.06,2.92,3.99,0,7.67-1.05,11.03-3.14,3.36-2.09,6.04-4.28,8.03-6.57.05-.05.09-.1.13-.16,0,.25,0,.5.01.74.15,2.1.83,3.8,2.04,5.11,1.22,1.32,3.24,1.97,6.06,1.97,3.51,0,6.79-.95,9.86-2.85,3.07-1.9,5.55-3.85,7.45-5.84.58-.61,1.08-1.19,1.51-1.73.01.14,0,.28.02.42.29,2.78,1.22,5.09,2.78,6.94.1.29.29.49.58.58-5.16,2.14-8.91,4.87-11.25,8.18-2.34,3.31-3.38,6.52-3.14,9.64.24,3.12,1.7,5.79,4.38,8.03,2.68,2.24,6.5,3.36,11.47,3.36,3.99-.1,7.62-.8,10.88-2.12,3.26-1.31,6.23-3.09,8.91-5.33,2.68-2.24,5.11-4.89,7.3-7.96,2.19-3.07,4.16-6.35,5.92-9.86,2.24-.49,4.55-1.32,6.94-2.48,2.38-1.17,4.84-2.73,7.38-4.67,1.25-1.01,2.29-2.03,3.13-3.05.4,2.21,1.19,4.12,2.42,5.68,1.36,1.66,3.07,2.78,5.11,3.36,2.04.58,4.28.73,6.72.44,2.43-.29,4.99-1.07,7.67-2.34,2.68-1.26,5.33-2.92,7.96-4.97.19,1.95.9,3.53,2.12,4.75,1.22,1.22,3.19,1.83,5.92,1.83,2.34,0,4.6-.46,6.79-1.39,2.19-.92,4.16-2.02,5.92-3.29.87-.62,1.67-1.27,2.42-1.93-.22,32.59-69.45,61.8-150.25,26.95-57.35-24.73-139.54-7.35-154.14.16-8.26,4.25-11.75,7.25-16.08,14.5-5.25,8.79-13.04,23.62-13.04,31.76,0,10,12.11,5.39,15.43,3.82,12.97-6.15,55.94-28.09,87.36-30.57,70.82-5.59,132.62,28.67,189.94,17.44,54.8-10.73,60.56-80.73,43.75-71.33ZM294.11,58.97c2.63-5.94,5.26-10.98,7.89-15.12,2.63-4.14,5.09-7.5,7.38-10.08,2.29-2.58,4.28-4.38,5.99-5.4,1.7-1.02,2.9-1.34,3.58-.95.88.49.61,2.17-.8,5.04-1.41,2.87-3.56,6.31-6.43,10.3-2.87,3.99-6.16,8.21-9.86,12.63-3.7,4.43-7.35,8.45-10.96,12.05.78-2.63,1.85-5.45,3.21-8.47ZM350.2,106.96c-2.73,1.9-5.79,2.6-9.2,2.12-1.75-.29-2.78-.95-3.07-1.97-.29-1.02.05-2.12,1.02-3.29.97-1.17,2.6-2.26,4.89-3.29,2.29-1.02,5.14-1.73,8.55-2.12.97-.1,1.92-.17,2.85-.22.92-.05,1.87-.07,2.85-.07-2.53,3.99-5.16,6.94-7.89,8.84ZM372.47,66.35c-1.31,2.78-3.09,5.82-5.33,9.13-1.27,1.85-2.63,3.34-4.09,4.45-1.46,1.12-2.9,1.92-4.31,2.41-1.41.49-2.68.68-3.8.58-1.12-.1-1.97-.49-2.56-1.17-1.07-1.46-1.22-3.63-.44-6.5.78-2.87,2.48-5.87,5.11-8.98,1.56-1.85,3.16-3.34,4.82-4.46,1.65-1.12,3.19-1.92,4.6-2.41,1.41-.49,2.68-.66,3.8-.51,1.12.15,1.97.56,2.56,1.24,1.07,1.37.95,3.43-.37,6.21ZM427.61,66.35c-1.27,2.78-3.02,5.82-5.26,9.13-1.27,1.85-2.65,3.34-4.16,4.45-1.51,1.12-2.95,1.92-4.31,2.41-1.37.49-2.61.68-3.72.58-1.12-.1-1.97-.49-2.56-1.17-1.07-1.46-1.22-3.63-.44-6.5.78-2.87,2.48-5.87,5.11-8.98,1.56-1.85,3.14-3.34,4.75-4.46,1.61-1.12,3.14-1.92,4.6-2.41,1.46-.49,2.73-.66,3.8-.51,1.07.15,1.9.56,2.48,1.24,1.07,1.37.97,3.43-.29,6.21Z" fill="#163358"/>
  </g>
</svg>