<svg id="Layer_1" data-name="Layer 1" xmlns="http://www.w3.org/2000/svg" viewBox="0 0 510.87 211.52"><defs><style>.cls-1{fill:#fff;}.cls-1,.cls-2{fill-rule:evenodd;}.cls-2{fill:#fff;}</style></defs><path class="cls-1" d="M96.84,70c-.13,1,1.53-.94,1.73-.07.56-1,4.28-.27,3.77-1.18.54-.17.54.25.88.31,1.17-.86,4-.66,5.83-1.43-.86,1.28,1.7-1.21,1.92.45.35-.77,2.74-.89,2.75-.45.3.07.64-.38.85-.38s.28.49.54.5c.75,0,1.58-1.31,2.59-.27.2,0,.13-.32.15-.52a44,44,0,0,0,4.84-.19,11.43,11.43,0,0,1,3.47.22c1.88-1,2.11.54,3.45-.48-.08.39.34.23.37.51.25-.21.33-.58.84-.55-.37.75.09,0,.52,0,1-.1,2.41.81,3.28-.13,2.48.52,4,.33,7.28.07-1.27.37,1.18.75,1,0,.32.12,0,.32,0,.52,1-.46,3.39-.52,3.82.38.14,0,.16-.18.34-.19s-.08-.21,0-.52a60.49,60.49,0,0,0,9.72.68c0,.28.17.29.19.51,1-.28,2.45-.36,2.78.24.17-.12.16-.4.51-.37-.66.12,3.14.53,1.74.29,0-.39.73-.1,1-.22,0,.18,0,.35,0,.52,1-.6,3.16,0,3.63-.14.19,0,1.89.09,1.58.47a31.25,31.25,0,0,1,7.11.42c.07,0,.77.3.37.5,1-.54,2.5.56,3.1-.29.29.17.42.45.2.69,1.4-.18,2.66.59,3.64.21.73,1,1.94-.29,3.14.57.17-.42,2.68-.67,3.81-.14.08-.71,2.54.22,4.16.19s4.6-1.13,5.53-.21c.62-.46,1-.19,1.72-.41,2.87,1.4,6.85-.25,9.73,1a1.26,1.26,0,0,0,.33-.53c2.39.48,5.51-.36,7.27.07.22-.66,1.59.21,2.06-.6.26.07-.06.23,0,.52,1-.61,2.58-1,3.44-.47a15.4,15.4,0,0,1,6.73-.78c.16,0,.12-.21.16-.35,7.16,0,15.08.89,24.07.13,2.61-.22,6-.74,8.13-.13,0,0,0,.34,0,.34,3.36.23,5.48-.89,8.31-.13,1.73-.71,6.66-.32,10.35-1.09,0,.59.6-.06.88.49.61,0-.39-.56.15-.53s0,.27.37.51c.2,0,.13-.32.15-.53,1.86.25,3-.44,5-.53-.72.67.12.28.54.5.05-.3-.14-.32-.36-.33,1.9-.26,4.69-.62,6.06-.06.75-.42,2.52-.2,4-.15,0,.25-.51.08-.51.37.32.69,1.16-.26,1.56.11-.17-.58-.38,0-.7-.32.39-.41,1.55-.12,2.24-.26-.18.79-1-.27-1.36.57,7.93.72,13.66.63,20.63.78,2,0,4,.3,5.9.3,2.74,0,5.49.2,7.59-.8,3.85.35,6.72-1.08,10.37-.39,0,0,.28.42.69,0l0,.69c2.47,0,4.76-.2,6.57-.25.47,1,.73.21,1.9-.07-.51.43-.13.18.19.51.39-.11-.22-.26.16-.52a.47.47,0,0,1,.36.51c1.05-1.13,3.76.4,5.92.64a46.85,46.85,0,0,0,7.78-.12c1.75-.12,3.28-.44,4.33.18,29.55,0,63.48-1.91,91.76-4.84a7.75,7.75,0,0,1,1.39,0c2.55.12,5.17-.62,7.76-.64,3,0,5.89.32,8.84,0a99.21,99.21,0,0,1,13.83-.35c1.61,0,3.26-.06,4.85,0,4.59.16,9,1.35,13.74,1.74,2.09.17,4.67-.33,6.59.27s3.69,2.48,5.85,3.59c1.14.58,2.16,1,3.18,1.61,3.72,2,6.76,4,8.75,7.11.16.37.77.25,1.06.48,6.62,10.58,8.79,26.26,10.72,41.15.92,7,.05,14.27,1.83,20.89,1,11.82,2.43,23.94,4.11,35.68.4,2.74,1.8,5.76,2.06,8.58.3,3.28.5,7.07.56,10.37,0,1.26-.13,2.52,0,3.81.49,5.88-.81,11.6-.71,17.68a59.27,59.27,0,0,1-1.21,13.9,4.44,4.44,0,0,1-.42,2.79c-.53,3.77-1.66,8.64-2.46,12.73a28.06,28.06,0,0,1-1.85,6.13c-.92,2.14-2.6,3.35-4.12,5.35-1.09,1.42-2.05,3.43-3.46,4.63-.45.38-1.26.62-1.87,1.11-2.49,2-6.21,5.53-9.25,7.28a1.35,1.35,0,0,1-1.21,0c0,.2.05.31.19.34-1.94.55-7.07,1.58-9.64,1.4-1.64.92-4.12.87-6.54,1.11-.08-.29.12-.33.33-.36-.08-.15-.16-.3-.36-.33s-.08.59-.32.71c-1.62-.3-3.15.46-5.19,0,0,0,.19-.29.16-.35-1.25.2-3.62.56-4.52-.35-5.69.59-10.91-.27-16.48-.94.21-.59-.21-.57-.17,0a12.43,12.43,0,0,1-4.53-.7c.05.3.31.38.7.32a223.48,223.48,0,0,1-23.42-1.37.81.81,0,0,0,.15-.52c-.8.07-.12.48-.66.72a4.37,4.37,0,0,0-2.6-.08c0-.4-.07-.65-.38-.68.88.82-2.58.3-2.93.29a21.64,21.64,0,0,1-2.77-.08c-.22-.21-.08-.26,0-.51a2.26,2.26,0,0,0-1.23-.3c0,.38.17.54.54.5,0,.41-.64,0-.7-.15-3.79.69-7.53,0-10.58-.47a1.22,1.22,0,0,1-1.55.06c.1-.18.39-.19.33-.53-.46,0-.44.38-.5.71-2.34.23-3.68-.79-5.54,0,0-.19.34-.13.34-.36a19.42,19.42,0,0,1-2.24.26c0-.41.31-.73,0-1-.57.67-1.33.66-1.18.91-.19.28-2,.16-1.57-.29-2.8.27-4.65.87-6.94-.26-.52.75-1.48.43-3.44.48a.55.55,0,0,1,.86-.2c.06-.55-.62-.44-.21-.86-.51,1.58-3.25.72-3.94,1-.41-.18.22-.68-.38-.85-.39.27-.25.43-.14.87-.81.1-1.22-.37-1.94-.79-.21,0-.16.35,0,.34-1.8.64-3.15.07-4.31.51,0-.76-2,.56-1.76-.8-.72.23-.83,1-2.05.77,0-.8-.74-.05-.72-.66-.29.83-.65.89-2,.76.32-.62-.18-.68-.89-.65a.81.81,0,0,0,.72.66c-.49.53-2.76-.65-2.76.45a3.19,3.19,0,0,0-2.93.11c.19-.69-.5-.43-.72-.66-.27,1-2.08.4-2.58.44-.13,0-1.77.71-2.42.09a1.29,1.29,0,0,0-.33.54c-1.06-.38-2.41-.56-2.77.1-.65-.29-2-.38-2.42.09-.44-.58-.69-.43-1.38-.12-.11-.38.31-.26.32-.53-.42-.17-.8.33-1.53.57a.87.87,0,0,0,.15-.52c-.46.09-.56.67-.7-.15-.57,1.14-3.57,1.36-4.48.69.13.77-2.57.5-2.06.25-1.18.09-2.1.1-3.28.3a1,1,0,0,0,.14-.7c-.69,0-.68.59-1.36.57.12-.56.14-.36-.2-.69-.64,0-.59.68-1,.91a3.62,3.62,0,0,0-2.77.11c.47-.65-.66.07-.69,0-.47-.14.38-.4.32-.71a2.39,2.39,0,0,0-.83.9c-.17-1-1.34.47-1.59-.8-.3.16-.2.71-.85.55a4.8,4.8,0,0,0,.49-.89c-.49.36-.85.2-1.2.4-.05.29.15.32.36.33-.77.24-1.48-.11-2.43-.09a.47.47,0,0,0,0-.69c-.71.07-.45,1-1.53.76.23-1-2.36-1.06-3.14-.58-.15-.38-.62-.41-.89-.66-.73.92-.2,0-1.37.4,0,.25,0,.49.19.51-.18.51-.57-.2-.54-.5-.3.06-.38.31-.32.7-.93-.17-1.79.1-2.6-.07-.06-.39.5-.21.5-.54-.42.17-1,.2-1,.74-.37-.26-1-.28-1.07-.83-.51.13.18.36,0,.69-.78-.43-1.28-.06-1.93-.62,0,.77-1.06-.2-1.58-.46-.31,0-.35.23-.68.2.41,1-.85.18-1.54.58-.2-.58.53-.29.85-.38-1-.77-1.57.38-2.93.28.13-.49-.26-.44-.2-.86-.3.16-.52.6-.7,0a4.09,4.09,0,0,1-.66.72c-.45-.12.46-.62,0-.87-1,.34-1,.17-1.35.75-.66.05-.07-.14-.19-.51-.17.11-.17.4-.51.36-.19-.34-.33-.73-.72-.84-.76.45-1.8,0-2.22,1a1.47,1.47,0,0,0-1-.13c.16-.24.45-.36.49-.71.19,0,.13.33.36.33-.1-1.08-.58.23-1.05-.31-.26.09.08.22,0,.52-.42.17-.92-.74-.87,0-.2,0-.15-.31-.19-.51-.5-.13-.44.26-.86.21.2-.24.06-.28,0-.52-1,.43-1.44.86-2.43-.26-1.46,1.14-3.14-1.16-4.31.51-.33-.25-.46-.7-.9-.83-.93.33-1.27.24-2.22.6-.68-1.75-1.57.48-2.61-.07-.06,0-.09-.51-.19-.52s-1,1.09-1,.05c-.21,0-.14.32-.16.52-.4,0-.41-.45-.2-.69-.26.27-.8.27-1,.56,0-.54-1.58-.16-2.77.11a.48.48,0,0,1,.5-.37c-.3-.15-.4-.53-.55-.84-.42.1-.6.44-.84.72-.43-.81-1.47.55-1.22-.3-.45,0-.87,0-.67.54-.58-.25-.38-.65-1.22-.3-.11-.53.38-.72-.21-.85-.33-.09.18.45,0,.52.06,0-2.23-.26-1.57-.29a.87.87,0,0,0-.84.72c-1.57.07-3.51-.88-4.49.17-.62-1.31-1.74-.3-2.78-.24-.3-.33,0-.22,0-.69a6.17,6.17,0,0,1-2.94.11c.09.15.16.3.36.33-.05.59-.69-.43-.5.37-.31,0-.41-.28-.38-.68-.45.09-.56.68-.69-.15-.54.06-.66.51-1,.73-.6-.34-1.17-.38-1.55.23a1.63,1.63,0,0,0-1.56-.11c-.06-.28.15-.3.16-.52-.52.08-.42.73-1.2.56-.21-.22-.08-.27,0-.52-1.1-.13-1.81.94-2.77.28.26.57-1.71.17-1.21-.13-.37-.07-.32.26-.33.53-1.69-.72-1.4.3-2.94-.06,0-.17.2-.14.33-.19-.81-.5-1.22.39-2.59.1-.21-.22-.07-.27,0-.52a.82.82,0,0,1-.51.2c0,.16.22.12.35.16-.86.3-2.27-.35-2.75.62a3.1,3.1,0,0,0-1.92-.45c-.05.3.15.32.36.33-.23.37-.6-.14-1,.22.68-.43-.08-.36-.7-.33,0,.85-1.62-.3-2.41.44,0-.32.57-.14.5-.54-.34.09-1.11.44-.7-.14-.44.55-2.07.53-2.23.6a5.93,5.93,0,0,1-2.07.25s.2-.63,0-.69c-.44-.11,0,.46-.5.54.74-.11-1.81-.36-1.05-.31-.62,0-.73.17-1-.3-.28.3-.43.71-1,.73a.84.84,0,0,0,.15-.53c-.6.2-.31.31-.49.71-.47-.18-.54-.13-.37-.68-.91.23-.63.74-1.54.75.74-.83-1-.28-1.38-.12-.32,0-.13-.58-.37-.67a6.46,6.46,0,0,0-1.89.59c-.06-.28.16-.31.16-.53l-.69,0c-.23.41-.6.72-.52,0-.46.69-.68.06-1.36.74-1.25-1.26-3.83.49-4.88-.68-.31,0-.08.59-.31.7-.89-.5-2.2.08-2.79-.41-.86.87-1.85.49-2.77.1a.88.88,0,0,1,.2.51c-.23-.05-.29-.29-.53-.32-.41.61-3.83.6-5.53.55a.48.48,0,0,0-.5.37,11.54,11.54,0,0,0-4.49.34c0-.35.45-.36.49-.71a.65.65,0,0,0-.67.72c-.77-.53-.41-.05-1,0-1.26-.6-3,.33-4.51-.18-.21.05-.16.35,0,.34-2.67.42-3.82-.5-7.25.45.39-.66-.27.14-.37-.5.15.54-1.21.41-1.17.91-.75-.6-1.33.12-1.41-.64-1.65,1-3,.49-4.65.86-.25-.06,0-.15,0-.34-.38-.1-.53.51-.52-.16-.56.92-2.2.37-3.11.3.08.14.16.3.36.33,0-.1-2.25.41-1.56-.12-1.18.26-2.48.59-2.78-.24a4.66,4.66,0,0,1-4.14.33.48.48,0,0,0-.33.53,6.55,6.55,0,0,0-3.46.13c-.52-.47-3,0-4.5.17-.25-.06,0-.15,0-.34-1,.4-3-.1-3.44.64-.06-.27.16-.3.16-.52s-.35-.1-.36-.33c-.2.07-.43.32-.16.35-1.9.19-4.32.84-6.06.05.09.63-3,.27-5,.37a21.41,21.41,0,0,0-3.09.63c-.53.08-1.14-.23-1.06-.65a3.67,3.67,0,0,0-.84.72c-.37.1-.34-.23-.37-.5-.1.52-1.49.84-1,0-.46,0-.11.67-.68.54.33-.51-.9-.28-1.38.06a.8.8,0,0,0,.15-.53c-.54,0-.81.43-1.21.05.32.84,0,.09-.32.53-.26-.07,0-.16,0-.35-.55-.18-.4.29-.68.37-.7.11.13-.44-.37-.68-.34.29-1.1.21-1.18.74-.21-.55-1.32-.13-1.58-.63.53.58-1,.29-1.19.73-.11-.43-1.15-.35-.72-.83-.2.85-.9.25-1.19.73-.18-.1-.19-.39-.53-.32-.22.67-.8.21-1.73.06-.32,0-.64.39-1,.39-.83,0-1.48-.43-2.1-.44-.39,0-.77.45-1.19.39-.61-.09-.53-.16-.53-.15-.87.55-2.84.52-3.29,0-.44,1-1.46-.18-2.05.77,0-.47.28-.36,0-.7-.32,0-.36.23-.69.2,0,.17.22.13.35.16-1.21.38-3-.15-4.48.52.89-.74-.8.16-.19-.51-1.08.65-1.95-.23-2.76.45-.55.17-.26-.56-.54-.68-.19.17,0,.39-.32.71a2.89,2.89,0,0,0-1.72.24c0-.3-.47-.39-.73-.84-.48.19.27.45-.14.7-.82,0-1-.28-1,.21-.57.14-.29-.35-.2-.51-1-.16-1.8,1.23-1.73-.11-.85.69-2.28.7-2.61-.25-1,.67-1.6.22-2.75.45-.81.17-2.11-.62-3.47-.22.18-.05-.87.56-.7-.14-.49,0-.71.34-1.2.39.92-.48-1.78-.54-1.73-.11-.25-.16.06-.29-.37-.5-.54,0-.47.56-1.2.39,0-.47.28-.36,0-.69-.41.76-1.11.17-1.88.76-.87-.72-1.14.33-2.62-.59-.24.07,0,.3.19.34-.39-.07-2.59.38-2.09-.27-1.44.33-2.43,0-4.31.5.34-.36-.09-.33-.2-.68-.81.5-1.5.07-2.4.44,0-.17.2-.14.33-.19-.61-.31-1.41.18-2.42.09-.37,0-.67-.44-1-.48-.58-.06-1.85.65-1.4-.29-.28,0-.29.17-.51.19.12.17.4.17.36.51-.26-.2-.77-.12-.71-.67a3.34,3.34,0,0,1-2.59.27c.08,0,.15-.49,0-.52-.49-.06-2,.77-1.91-.1-.33.25-1,.21-1.37.4-.3-1-3.17.09-4.71-1-1.29,0-3.72.6-4.86-.17-.15-.1-.19-.25-.19-.51-.13.16-.47.12-.5.37.06-.91-1.51,0-1.78-1.15-.7.45-.8-.45-1.55.06-.19-.22-.49-.32-.55-.67,0,.34-.3.48-.36-.34-.36.07-1,.54-.88-.31-.58.31-.76,0-1.55.23-.08-.81-1.32-.37-1.43-1.16-.52.47-.72.22-1.38.06.19-.26.17-.43-.19-.51.31-.35.31-.15.14-.7-.62.37-.21.83-.3,1-.41.14-.75-1.1-.87-.14-.26-.14-.56-.24-.54-.68-.66.42-.81-.17-1.57-.11-.14-.61-.26-.82-1-.48-1-.92-1-1.09-2.47-1.12.34-1.19-1.58-.61-1.62-1.67-1,.44-.81-1-1.93-.62.37-.4,0-.86-.22-1.2-.5.16.12.55,0,.86-.9-1.08-2.66-1.34-2.85-2.31-.46-.08-2.27-.78-2-1.66-.34-.31-.31.11-.87,0-.12-.57-.53-.57-.22-1.2-.17.12-.16.4-.5.36,0-1.13-3.08-1.89-3.24-3.34,0,.08.3.11.35.16a19.28,19.28,0,0,0-1.79-1.49c0-.31.2-.37.15-.7s-.47.09-.33.36c-.56-.18-.47-1.06-1.09-1.17.08-.26.24-.45.32-.7-.13-.52-.36.18-.69,0,.32-.65-.13-1-.75-1.7.61.11-.13-.9.28-1.57,0-.4-.5-.17-.54-.5-.18.05-.1.35-.33.36.17.5.27.19.7.14-.18,1.24-1.31-.21-.55-.67-.08-.25-.22.08-.51,0a11.21,11.21,0,0,0-1.73-4.44,1.63,1.63,0,0,1,.65-1.07c-.95-.24.13-1.57-1.09-1.51.42-.91-1.27-2.22-.14-3.63-.42-.06.12.78-.5.53a7.69,7.69,0,0,1-.14-3.8,1.29,1.29,0,0,0-.54-.33c.85-.62-.36-2.05.25-2.77-.39-.17-.19,0-.37-.68.13,0,.17.16.35.16-.07-.4-.4-.86.15-.53-.82-1,.11-1.75.24-2.78l-.5.54c-.48.1.1-.95-.37-.85.63-.29-.13-1.71.6-2.27-.71-.3-.61-1.34-.24-1.9-.17,0-.13.22-.16.35-.07-1.32.32-1.57,0-3.46a.82.82,0,0,0,.52.15c.07-.37-.25-.32-.53-.33-.16-.48.23-.45.14-.87.55-.16.55.26.88.32-.3-.45-.76-.74-1.08-1.17.18-.08.69-.79,0-.7.75,0,.48-1-.06-1.55.09-.37.26-.38.51-.19a4.62,4.62,0,0,1-.58-1.72.78.78,0,0,0,.53.16c-.21-.2-.51-.29-.38-.85.28-.06.3.15.52.15-.57-.69.08-.63-.4-1.54.23.05.28.29.53.32-.05-.87-.33-1-.42-2.05.34,0,.23.46.7.31-.76-1.27.21-2.45-.47-3.27.56.34.22-.13.16-.53.66.73.31-.22.3-1a.92.92,0,0,0,.53.15l0-.69c-.65.63-.7-.19.17-.18-1.16-1.36-.09-2.57-.5-4,0-.2.31-.15.51-.19-.36-1,.34-1.77-.27-2.76.71-.11-.12.44.37.68.9-.72.16-.81-.07-1.73a.86.86,0,0,0,.53.16c-.53-.36-.28-1.75.27-2.09-.19-.43-.76.16-.68.54-.63-.44.45-.69.3-1.22-.76,0,.33-.43-.37-.68.13-.52.28.39.7.15-.52-1-.07-1.69.42-2.79-.57,0-.27.86-1,.73a1.41,1.41,0,0,0,.14-1c.31-.06.36.15.18.16.13.38.56-.35.67-.54s-.23-.36-.2-.69a.47.47,0,0,0-.5.37c-.11-.5.26-1.72,1-1.25,0-.69-.68-.59-.91-1,.3-.24,1.4,1,1.37-.39-.09.3-.51.3-.67.54-.38-.1.75-1.26-.39-1.2.17-1.32-.27-1.36-.1-2.59,1.18.31,0-1.3,0-.86-.47-.06.53-1.57.49-.71.36-.06,0-.77.32-.88,0-.41-.48.08-.34.36-.77-.45.3-1.15.11-1.74-.64.16,0,.61-.31.88-.51-.36-.26-2.09.62-1.75a3.9,3.9,0,0,1-.72-.84c-.14-.46.35-.35.5-.54-.85-.18-.4-.73-.59-1.89.22-.21.27-.07.52,0,0-.49-.35-.71-.4-1.2.55.06.54-.39.49-.89-.17.12-.16.41-.5.37-.32-.55.79-.86,0-.86,0-.41.45-.43.52,0,.47-.18-.47-.31-.2-.86.32.31.49-.23.87.14a1,1,0,0,1-.2-.69c-.35,0-.54.06-.51.37-.49-.32.21-.91.12-1.39-.59.67.24-.73.3-1.4-.09-.25-.22.08-.52,0,.38-.84.27-.84,0-1.38,0-.23.29-.29.32-.53-.61.15.06-.91-.4-1.55.38.71.5-.27.48-.88-.46,0,.2,1-.49.71.23-1.49-.19-2.47.58-3-.54-.74-.2-1.52-.27-2.59,1,.65-.19-1.26.83-.9-1.14-1,.23-2.46-.63-3.09.16-.37.75-.51.7.15.14,0,.16-.18.33-.19,0-.46-.26-.56-.71-.49.3-1.89-.25-2.74.91-3.67-.28-.24-.62-.42-.73-.84,0-.59.37-.77.65-1.06-1-1,.56-1.89-.27-2.77.27-.06.3.16.52.16-.71-.68.17-1,.28-1.74-.51.86-.07-3-.11-2.94s.69.36.7.14-.56,0-.7-.32c-.23-.46.44-2.09.23-2.95.7-.08,0,.24.2.69.19-.05.1-.35.33-.36-.11-.57-.92-1-.41-1.72.25,0,.08.52.37.51a1.77,1.77,0,0,0,.47-1.06c-.06-.36-.45.27-.69-.15.56-.31-.23-1.39.48-1.05-.08-.6-.47,0-.53-.33.49-.58.22-.93.81-1.24,0-.2-.17-.09-.17,0-.26-.06.06-.22,0-.51a.82.82,0,0,1-.51.19c.4-.08.14-.76.66-.72-.14-.44-.28-.79.14-1-.76,0,0-.92.47-1.23-.06-.41-.46.21-.5.36.14-.43,0-2.58.75-3a3,3,0,0,1,.74-3.32c-.77-.36-.08-.15-.38-1a.77.77,0,0,1,.51-.19c-.66-.51.41-.82-.07-1.91.79-.1-.31-.74.68-.37-1-.92.46-1.72-.28-2.58a6.68,6.68,0,0,1,.68-.38c0-.39-.06-.64-.37-.68.1-.6.52-.13.87,0-.22-.42-.71-.55-.74-1.18.33-.08,0-.79.67-.55,0-.16-.22-.12-.35-.16,1.26-1.06.38-1.73.92-3-.24.56,1-.49,1-1.08-.19-.47-.27.8-.68.2.7-1,.08-1.14,1.15-1.6-.09-.33-.51-.3-.38-.86.34.06.16.67.71.5.12-1.22,0-3.18,1.59-3.87.19-.57-.57-.11-.37-.68.53.11.19-.6.85-.38-.37-1.35.84-1.73.42-2.61.81,0,.74-1.25.81-1.42.39-.92,1-1.25.77-2.45.28-.06.31.15.53.15-.31-.87.48-1.13.09-2.08.8.91.06-1.07,1.18-1.08.08-1.58,1-2.79,1.91-4.23-.07-.24-.3,0-.34.19-.47-.25.25-.76.31-1,.21,0,.16.3.19.51.51-1.72.51-3.24,1.76-3.88.11-1.84,2.54-4,3.07-5.83.39-.06.79-1.21,1.54-.57a1.11,1.11,0,0,1-.21-.86c4.21-2.71,7.3-6.64,12.2-7.22.2,0,.13-.31.15-.52,3.22-.9,6.37-1.63,9.26-2.43-.34.59.83.16,1.2-.21m199-2c.3-.18.93,0,.85-.55-.5,0-.94,0-.85.55m-2.79-.59a4.06,4.06,0,0,0-1.38.23c.18.14,1.52.42,1.38-.23" transform="translate(-48.21 -63.34)"/><path class="cls-2" d="M147.27,160.48c-2.34-4.62-3.9-9.81-6.48-14.12-1-1.66-2.39-3.15-3.49-4.81A41.15,41.15,0,0,1,134,136.4c-1.67-3.67-2.51-7.39-4.15-10.8.39-.29-.19.12-.34-.16-1.05-2.88-2.08-7.79-5.15-8.64.43-.54-.86-1-1.16-1.16-1-.62-5.57-.27-6.48.16a13.77,13.77,0,0,0-3,3.32c-.35.53-.27,1.23-.51,2s-.9,1.33-1,1.83c-.25,1.31.33,3.26.33,5,0,5.91,0,11.33-.33,17.1-.66,12.78.78,27.31,1,40.53.15,8.49-.39,17.2.51,25.58.3,2.84-.31,6,0,7.81.2,1.23,1.36,2,1.82,3.15,1.21,0,1.72.17,2,1.33,1.29-.48,1.86,1.11,2.83,0v.83a9.67,9.67,0,0,1,3.49-1.32c0-2.52,1-4.94,1.32-7.31.19-1.29-.09-2.62,0-4,.13-1.71,1-3.44,1.17-5.15.23-2.19-.27-4.48,0-6.64.31-2.58.55-5,.66-7.64.14-3.41.69-6.78.67-10.13,0-3.15-.72-6.14-.83-9.31-.29-7.63.16-13.45-.34-20.09,4.08,4.48,5.64,10.36,8.31,15.61s5.82,10.2,8.8,15.28c4.49,7.64,8.52,15.42,12.63,23.25,1.89,3.62,3.77,7.88,6.14,10.8,1.42-.07,2.17,1.09,3.16,1.49.4.17,1.15-.36,1.16.5.92-.71,1.22-.5,2.66-.33,2.48-1.46,4.92-3.29,5.64-6.48a35.84,35.84,0,0,0,.34-5.48c.09-1.76.39-3.48.49-5.15.46-7.11.34-13.57.34-20.76,0-3.83,1.26-7.67,1.66-11.63.42-4.17.12-8.61.33-12.95.35-7.3,1.28-14.75,1.5-22.09.09-3.34-.4-6.63-.34-10s.76-6.49.83-9.3c0-1.68,0-3.3.17-4.82a10,10,0,0,0,.33-1.66c0-.38-.59-1.24-.83-2.16-.65-2.56-1.45-3.57-3.49-4.32-1.75.22-3.18-1-4-.83s-1.2,1.35-2.33,1.17a7.91,7.91,0,0,1-2.16,2c-.18,1.22-1,2-1.33,3-.66,2-.28,3.81-.33,6.14,0,2.67-.84,5.4-1,8.14-.32,5.69.29,11.52-.17,17-.58,6.91-1.69,14.63-1.83,20.26-.05,2.16.1,4.36,0,6.48-.31,7-2.33,12.81-1.82,19.43-4.51-8.58-9.78-16.16-14.12-24.75" transform="translate(-48.21 -63.34)"/><path class="cls-2" d="M488.43,114.56c-1-.13-1.24,1.22-2.66.57,0,.91.43.85.17,1.72-1.74.91-1.4,1.94-2.16,3.82-.27.65-.66,1-.83,1.52-.43,1.29-.42,4.13-.66,6.3-.22,1.88-.43,4-.5,5.92-.31,8.21-1.06,15-1,21.76.09,10-1,20.78-1.5,30.74-.31,6.63.39,14.76.34,19.47,0,1.32-.56,2.49-.5,3.82.24,5.59,3.28,8.25,6.81,9.54,3.58-.78,6.26-2.6,7.47-6.11.09-3.67,0-6.63-.16-11.07-.15-5-.24-11.51,0-15.84.36-6.53.6-15.09,1-21.77.44-7.54.23-15,.49-21.76.13-3.18-.1-6.4.17-9.16a17.36,17.36,0,0,0,.33-1.72c0-.52-.45-1.22-.5-1.91-.21-3.3,1.28-7.66.34-10.69-.2-.63-.86-.83-1.17-1.53-.43-1-.23-1.84-.66-2.67-.88-.55-1.54.92-2,.76-.48-.93-1.82-3.19-2.82-1.71" transform="translate(-48.21 -63.34)"/><path class="cls-2" d="M473.67,206.32c-1.23-1.16-1.4-2.64-2.37-4a16.16,16.16,0,0,0-6.84-.33c-1.75,1.63-3.3,2.9-5.59,2.65-1.21-.82-2.53-1.23-3.88-2.16-1.63-9.92,2.22-21,1.5-30.72a34.15,34.15,0,0,1-.33-5.82c.5-5.67-.1-9.15-2.66-13-1.66-2.46-3.4-5.07-5.48-6.48-3.93-2.66-9.27-5.09-14.12-5.48-6.65-.53-14.3.82-18.27,3.32-.53,2-2.3,2.68-3.16,4.32.62,1.77,1.54,3.23,1.83,5.31a20.71,20.71,0,0,0,3.82,2.49c1.28.3,1.55-.38,2.49.17,4.23-1.58,9.07-3.67,13.45-2.32,2.94.9,5.18,3.21,7.32,5.15,1.61,4,1.47,12.14,1.15,16.77-7.86-.1-16.52,2.35-22.08,6.48-2.42,1.79-3.84,4.59-5.32,7.31-1.75,3.22-3.87,7.41-4.32,11.46-.51,4.67.67,11.92,3,14.61,1.15,1.34,2.74,1.94,3.66,3.33,5.94,1.29,10.09,5,16.77,4.15,3.39-.45,6-2.76,8.3-4.15,1.13-.69,2.47-1,3.33-1.66,1-.76,1.63-1.92,3-2.16,1.87-.34,3.55,1,5,1.49,4.87,1.59,10.95,2.42,13.56-1.16a9.22,9.22,0,0,0,3.21-1.66,10.21,10.21,0,0,0,2.8-4.32c.17-1.19-.4-2.45.27-3.66m-32.63-2c-.72.81-2,.49-3,1-.71.37-1,1.16-1.66,1.66-1.45,1.18-3.12,2-4.48,3a17.69,17.69,0,0,1-7.64-3,8.28,8.28,0,0,1,.16-5.32,28.78,28.78,0,0,1,3-6.14c1.2-1.81,3.16-2.79,5.65-3.82a17.68,17.68,0,0,1,8.31-1.83c-.64,5-1.07,9.89-.34,14.45" transform="translate(-48.21 -63.34)"/><path class="cls-2" d="M325,155c-1.17-.31-1.67-1.32-2.65-1.83-1.3.52-2.28-.71-3.49-.83A16.05,16.05,0,0,0,314,155a2.51,2.51,0,0,1-1.49,2.33c-.1,1.12-.19,2.24-.83,2.82.58.58.82,2.63,0,3.15.55-.16.54.24.5.67-1.88,10.44-1.07,23.24-2.33,33.88.29.45.49,0,.66.67a32.82,32.82,0,0,1,1,7.64c.13,4-1.72,7.82-.33,10.46,1.44.17,1,2.17,1.82,3,.74-.08,1.92-.33,2.17.84.46-.23.74-1.26,1.33-.84a3.58,3.58,0,0,1,0,1.66c.55-.1.56-.48,1.16-.16.82-.4-.48-1.2.33-1.5.57.43,1.61-1.46,2.66-1.66,5.67-9.89,1.26-24.58,3.32-37.7,4.79.3,6.08-4.58,7.64-8.47,3.13-4.36,10.25-3.46,14.28-.5a10.54,10.54,0,0,0,1.67,2.49c.55,3,1.91,6.29,2.49,10.13.85,5.66.63,12.86,1.32,18.11.26,1.89-.39,3.41-.33,5.15a13,13,0,0,0,1.5,5.14c1.53,2.71,3.78,3.63,7.31,3.66,1.5-1.37,4.12-1.64,4.31-4.32.24-.61.9.24,1-.5a11.24,11.24,0,0,1,.67-2.32c-.27-3.65-1-6.49-1.17-10.63-.11-2.9.14-6,0-9-.19-4.18-1.45-10.05-1.16-12.13,1.75-1.47,2.67-3.37,4.65-4.65,3.37-2.17,8.72-1.9,13-1.33,1.41.85,3.2,1.34,4.32,2.49a17.34,17.34,0,0,1,1.49,4c1.11,5.58,1.35,12.15,1.66,19.1s-1.77,15.06,1.16,19.44c1.34.7,2.13,1.28,3.49,2.15,1.55-.32,2.22.26,3,.34.32-.93,1.61-.91,2.33-1,.94-1.23,2.3-1.89,3-3.16,1.41-2.59.66-6.52.83-10.13.53-11.62-.71-23.68-1.83-34.38-.44-.77-1.21-1.23-1.16-2.49a2.44,2.44,0,0,1-1.5-2c-5.85-6.51-17.67-9.6-29.06-7.65a31.85,31.85,0,0,0-11.13,5.48c-3.65-3.49-9.22-7.44-15.78-8.3a24.63,24.63,0,0,0-15.62,3.32A11.09,11.09,0,0,1,325,155" transform="translate(-48.21 -63.34)"/><path class="cls-2" d="M262.87,157.49a.81.81,0,0,1-.16.5c-1.56-.23-2.21.69-3,.33a50.51,50.51,0,0,0-3.15,4.65,2.84,2.84,0,0,1-.67,2.5c1,2.32.29,5.64.5,8.63.39,5.31,1.3,11.2,1,15.45-.23,3.27,1,6.24,1.5,9.47.56,3.83-.83,7.72-.67,11.46-.22,0-.15-.29-.33-.33.11.83-.34,1.21,0,1.82s.7-.42.83,0c.57,1.84,1.84,2,2.16,4,.58,0,.74-.48,1.33-.5.84,1.53,2.29.67,3.49,1.66.73-.15.85-.92,1.49-1.16.44-.05.13.64.66.5.81-1.52,1.07-3.58,2.33-4.65,1.87-8.2,1.22-17.36,1-26.58,1.32-2.13,3-3.74,4-5.81,3.27-2.18,5.2-5,9-6,2.09-.55,5.08-.28,7.14-.83,4.26,1.17,10.34.6,11.47-4.15.9-.09.78-1.22,1.49-1.5a5.41,5.41,0,0,1-1-1.66c.55-.56.18-1.29.17-2.16a3.19,3.19,0,0,1-1.16-1.66c-3.64-3.23-11-2.85-16.95-2-5,.72-8,1.31-11.29,3.33-1.4.86-2.5,2.26-4,2.49.68-2-.94-4-1.33-6-1.95,0-3.53-1.63-5.81-1.83" transform="translate(-48.21 -63.34)"/><path class="cls-2" d="M245.1,179.42c-1.79-6.93-5.73-10.67-10.63-14.29a24.62,24.62,0,0,0-9.14-4.32c-4.86-1.32-9.81,0-14.45.83-6.15,1.07-10.3,3-14.12,6.15a26.41,26.41,0,0,0-8.8,14.12c-1.6,7.53.31,19.16,4,24.75.39.6,1.06,1,1.49,1.66,1.88,2.73,3.68,5.77,5.82,8.47,3.26,1.71,6,3.94,9.13,5.81a5.43,5.43,0,0,1,3,.84c1-.29,1.36-.94,2.49-.34,2.68-1.46,5.6-1.79,8.47-2.49,3.25-.79,6.73-1.1,9.64-2.49a25,25,0,0,0,3-2c4.37-3.12,6.94-7.22,9-12.79a44.4,44.4,0,0,0,2.65-9.47c.54-4.61-.34-10-1.49-14.45m-12.79,12.45c-.22,4.56-2.19,8.92-4.15,12.3-3.79,2.59-7.81,3.18-12,3.82a3.37,3.37,0,0,0-1.16.83c-2.21.51-5.12-1.5-7.15-3.16-2.65-2.18-4-5.49-5.31-9.63-1.14-3.59-2.48-7.86-1.5-12.13.41-.31.92-.52,1.33-.83,2.19-7.52,11.61-8.58,19.6-9,2.91,2.14,7.22,4.08,9,7.48,1.2,2.32,1.46,7.53,1.33,10.29" transform="translate(-48.21 -63.34)"/></svg>