<?xml version="1.0" encoding="UTF-8"?>
<svg id="Lag_1" xmlns="http://www.w3.org/2000/svg" xmlns:xlink="http://www.w3.org/1999/xlink" version="1.1" viewBox="0 0 1920 400">
  <!-- Generator: Adobe Illustrator 30.0.0, SVG Export Plug-In . SVG Version: 2.1.1 Build 123)  -->
  <defs>
    <style>
      .st0 {
        fill: none;
      }

      .st1 {
        clip-path: url(#clippath-1);
      }

      .st2 {
        fill: #fff;
      }

      .st3 {
        clip-path: url(#clippath);
      }
    </style>
    <clipPath id="clippath">
      <rect class="st0" x="27.51" y="83.49" width="1868.12" height="233.51"/>
    </clipPath>
    <clipPath id="clippath-1">
      <rect class="st0" x="27.51" y="83.49" width="1868.12" height="233.51"/>
    </clipPath>
  </defs>
  <g id="Illustration_100">
    <g class="st3">
      <polygon class="st2" points="569.83 205.55 605.7 205.55 587.77 172.48 569.83 205.55"/>
      <g class="st1">
        <path class="st2" d="M325.2,171.77c-23.57,0-27.66,6.32-27.66,28.48s4.09,28.47,27.66,28.47,27.66-6.32,27.66-28.47-4.09-28.48-27.66-28.48"/>
        <path class="st2" d="M728.03,226.7V83.49H27.51v233.51h700.52v-77.84h-68.97c-.7,0-1.26-.54-1.26-1.2v-75.44c0-.66.56-1.2,1.26-1.2h14.67c.69,0,1.25.54,1.25,1.2v64.18h53.05ZM225.65,241.17c-19.34,0-32.28-3.66-41.04-8.39-.29-.16-.4-.52-.41-.84-.02-.32.11-.64.35-.86l6.74-8.29c.25-.24.58-.37.93-.36.34,0,.62.22.91.39,4.38,2.67,17.93,5.98,30.01,5.98,18.46,0,21.65-4.47,21.65-10.53,0-5.31-4.1-7.83-15.48-9.54l-17.75-2.67c-21.24-3.19-28.48-10.46-28.48-24.29,0-7.13,4.33-13.99,12.88-17.9,6.99-3.2,16.73-4.56,29.69-4.56,8.98,0,19.73,1.41,32.57,4.91.39.11.63.49.71.86.08.38-.05.76-.33,1.04l-6.22,8.56c-.33.32-.83.42-1.3.3-7.98-2.01-17.27-3.23-25.43-3.23-17.67,0-24.58,2.76-24.58,9.43,0,4.99,2.27,6.75,15.53,8.74l17.76,2.68c19.74,2.98,30.43,8.83,30.43,24.04s-12.06,24.53-39.13,24.53M325.2,241.17c-39.32,0-45.33-21.64-45.33-40.93s6.01-40.94,45.33-40.94,45.33,21.64,45.33,40.94-6.01,40.93-45.33,40.93M434.96,228.72c20.53,0,26.46-6.18,26.46-15.91,0-.65.55-1.2,1.26-1.2h14.67c.69,0,1.25.55,1.25,1.2,0,18.08-17.38,28.36-43.63,28.36-39.32,0-45.34-21.64-45.34-40.93s6.02-40.94,45.34-40.94c31.19,0,43.63,14.4,43.63,28.36,0,.66-.56,1.2-1.25,1.2h-14.67c-.7,0-1.26-.54-1.26-1.2,0-9.45-6.03-15.9-26.46-15.9-23.57,0-27.66,6.32-27.66,28.48s4.08,28.47,27.66,28.47M520.08,237.97c0,.66-.56,1.2-1.26,1.2h-14.66c-.69,0-1.26-.54-1.26-1.2v-75.44c0-.66.56-1.2,1.26-1.2h14.66c.69,0,1.26.54,1.26,1.2v75.44ZM642.11,238.58c-.23.35-.64.59-1.09.59h-16.32c-.45,0-.87-.24-1.1-.62l-11.14-20.55h-49.38l-11.15,20.55c-.23.39-.64.62-1.1.62h-15.26c-.44,0-.85-.24-1.08-.59-.23-.37-.23-.83-.02-1.2l42.32-75.44c.23-.38.64-.62,1.09-.62h20.82c.45,0,.88.24,1.11.62l42.32,75.44c.22.37.21.83-.02,1.2"/>
        <path class="st2" d="M1697.64,237.43l-18.77-22.41c-1.97-2.24-3.91-3.79-6.1-4.8-.28-.13-.45-.27-.41-.45.04-.19.17-.29.48-.33,14.92-1.95,22.46-9.07,22.46-23.52,0-16.65-10.82-24.6-32.17-24.6h-45.64c-.69,0-1.25.54-1.25,1.2v75.44c0,.66.57,1.2,1.25,1.2h14.66c.7,0,1.25-.54,1.25-1.2v-26.46h13.98c7.61,0,10.14,2.09,14.49,7.24l14.6,17.79c1.38,1.7,3.41,2.63,5.68,2.63h14.59c.43,0,.83-.24,1.01-.61.19-.37.14-.81-.13-1.13M1633.42,199.05v-25.26h29.01c10.21,0,15.7,2.77,15.7,12.63s-5.49,12.63-15.7,12.63h-29.01Z"/>
        <path class="st2" d="M1300.99,200.25c0,19.28,6.01,40.93,45.34,40.93s45.32-21.64,45.32-40.93-6-40.94-45.32-40.94-45.34,21.64-45.34,40.94M1318.66,200.25c0-22.15,4.08-28.48,27.66-28.48s27.66,6.32,27.66,28.48-4.1,28.47-27.66,28.47-27.66-6.32-27.66-28.47"/>
        <path class="st2" d="M1487.47,238.1c.07.6.62,1.06,1.25,1.06h9.77c.7,0,1.26-.54,1.26-1.2v-31.22c0-.67-.56-1.2-1.26-1.2h-14.66c-.7,0-1.25.53-1.25,1.2v6.06c0,9.72-5.42,15.91-26.46,15.91-23.56,0-27.66-6.32-27.66-28.47s4.1-28.47,27.66-28.47c20.43,0,26.46,6.44,26.46,15.9,0,.66.55,1.2,1.25,1.2h14.66c.7,0,1.26-.54,1.26-1.2,0-13.95-12.44-28.36-43.62-28.36-39.32,0-45.34,21.64-45.34,40.94s6.02,40.93,45.34,40.93c13.13,0,21.35-2.31,28.74-7.18.89-.58,1.73-.2,1.9.62l.72,3.49Z"/>
        <path class="st2" d="M1270.05,238.1c.07.6.62,1.06,1.25,1.06h9.77c.7,0,1.26-.54,1.26-1.2v-31.22c0-.67-.56-1.2-1.26-1.2h-14.66c-.7,0-1.25.53-1.25,1.2v6.06c0,9.72-5.42,15.91-26.46,15.91-23.56,0-27.66-6.32-27.66-28.47s4.1-28.47,27.66-28.47c20.43,0,26.46,6.44,26.46,15.9,0,.66.55,1.2,1.25,1.2h14.66c.7,0,1.26-.54,1.26-1.2,0-13.95-12.44-28.36-43.62-28.36-39.32,0-45.34,21.64-45.34,40.94s6.02,40.93,45.34,40.93c13.13,0,21.35-2.31,28.74-7.18.89-.58,1.73-.2,1.9.62l.72,3.49Z"/>
        <path class="st2" d="M1526.28,161.33c-.69,0-1.25.54-1.25,1.2v75.44c0,.66.56,1.2,1.25,1.2h67.72c.69,0,1.26-.54,1.26-1.2v-10.05c0-.67-.57-1.2-1.26-1.2h-51.79v-20.24h39.73c.7,0,1.27-.53,1.27-1.2v-10.3c0-.67-.57-1.2-1.27-1.2h-39.73v-19.98h51.79c.69,0,1.26-.54,1.26-1.19v-10.07c0-.66-.57-1.2-1.26-1.2h-67.72Z"/>
        <path class="st2" d="M1826.64,161.33c-.69,0-1.25.54-1.25,1.2v75.44c0,.66.56,1.2,1.25,1.2h67.72c.69,0,1.26-.54,1.26-1.2v-10.05c0-.67-.57-1.2-1.26-1.2h-51.79v-20.24h39.73c.7,0,1.27-.53,1.27-1.2v-10.3c0-.67-.57-1.2-1.27-1.2h-39.73v-19.98h51.79c.69,0,1.26-.54,1.26-1.19v-10.07c0-.66-.57-1.2-1.26-1.2h-67.72Z"/>
        <path class="st2" d="M805.61,161.33h-48.2c-.69,0-1.26.54-1.26,1.2v75.44c0,.66.56,1.2,1.26,1.2h14.66c.69,0,1.26-.54,1.26-1.2v-24h32.28c24.72,0,29.19-14.63,29.19-26.31s-4.47-26.32-29.19-26.32M803.99,201.52h-30.65v-27.73h30.65c11.36,0,13.64,3.3,13.64,13.87s-2.29,13.86-13.64,13.86"/>
        <path class="st2" d="M1186.22,237.38l-42.32-75.44c-.23-.38-.65-.62-1.11-.62h-20.82c-.45,0-.86.24-1.09.62l-42.31,75.44c-.23.37-.22.83.02,1.2.22.35.64.58,1.08.58h15.26c.46,0,.87-.23,1.1-.62l11.15-20.55h49.38l11.15,20.55c.22.39.64.62,1.1.62h16.32c.44,0,.85-.23,1.08-.58.23-.37.24-.83.02-1.2M1113.91,205.55l17.94-33.07,17.94,33.07h-35.88Z"/>
        <path class="st2" d="M962.22,173.79c.69,0,1.26-.54,1.26-1.19v-10.07c0-.66-.57-1.2-1.26-1.2h-65.74c-13.85,0-22.54,4.32-28.17,14l-36.09,62.05c-.21.37-.21.83.02,1.2.23.35.64.58,1.09.58h15.35c.46,0,.89-.25,1.11-.63l11.65-20.54h37.48v19.97c0,.66.56,1.2,1.26,1.2h62.05c.69,0,1.26-.54,1.26-1.2v-10.06c0-.67-.57-1.2-1.26-1.2h-46.13v-20.24h34.54c.69,0,1.26-.53,1.26-1.2v-10.05c0-.66-.57-1.19-1.26-1.19h-34.54v-20.24h46.13ZM898.91,205.55h-30.41l13.98-24.64c3.47-5.96,8.14-7.13,15.01-7.13h1.43v31.76Z"/>
        <path class="st2" d="M1026.76,161.33h-40.19c-.68,0-1.25.54-1.25,1.2v75.44c0,.66.57,1.2,1.25,1.2h40.19c39.11,0,44.52-20.81,44.52-38.92s-5.41-38.91-44.52-38.91M1025.21,226.71h-22.75v-52.92h22.75c24.17,0,28.42,6.15,28.42,26.46s-4.25,26.46-28.42,26.46"/>
        <path class="st2" d="M1733.66,183.65l48.62,55.14c.22.23.51.37.84.37h13.96c.69,0,1.26-.54,1.26-1.2v-75.44c0-.66-.57-1.2-1.26-1.2h-12.05c-.68,0-1.25.54-1.25,1.2v54.32l-48.6-55.14c-.22-.23-.52-.37-.84-.37h-13.96c-.69,0-1.27.54-1.27,1.2v75.44c0,.66.57,1.2,1.27,1.2h12.04c.69,0,1.26-.54,1.26-1.2v-54.32Z"/>
      </g>
    </g>
  </g>
</svg>