<?xml version="1.0" encoding="UTF-8"?>
<svg id="svg361" xmlns="http://www.w3.org/2000/svg" xmlns:svg="http://www.w3.org/2000/svg" version="1.1" viewBox="0 0 1000 123.38">
  <!-- Generator: Adobe Illustrator 30.0.0, SVG Export Plug-In . SVG Version: 2.1.1 Build 123)  -->
  <defs>
    <style>
      .st0 {
        fill: #fff;
      }
    </style>
  </defs>
  <path id="path137" class="st0" d="M108.08,0c-.55.01-1.1.04-1.66.07l-27.14,95.01c-1.47,5.15-6.97,9.45-12.18,9.45h-10.42l16.4-57.34c.24-.87-.69-1.51-1.39-.9C47.57,67.05,18.45,97.37.23,120.3c-.46.6-.22,1.48.57,1.48h71c29.94,0,46.33-9.27,52.26-31.44,4.84-18.05-4.62-30.37-19.71-33.54-.28-.06-.52-.56,0-.66,12.77-2.18,25.65-7.33,30.25-25.96C139.42,10.64,125.1-.35,108.08,0h0ZM611.2,13.61c-25.11,0-38.67,9.85-43.54,28.74-1.34,5.18-.85,13.63,2.25,18.92,6.9,11.81,25.17,13.29,35.27,20.31,4.4,3.05,4.53,7.17,3.36,11.7-2.27,8.82-6.7,13.01-15.5,13.01s-13.55-4.93-8.71-20.36h-26.9c-10.78,25.77,3.27,37.44,31.9,37.44,26.13,0,40.63-6.21,46.84-30.24,2.13-8.21.76-17.07-4.29-22.56-9.77-10.62-28.56-12.61-35.16-18.77-3.36-3.13-3.33-7.52-2.36-11.28,1.8-6.92,6.45-10.69,13.98-10.69,11.81,0,12.11,7.26,9.21,15.89h25.33c5.96-18.01-1.85-32.12-31.69-32.12h0ZM443.97,14.48c-37.04,0-47.11,7.81-59.04,53.97-11.12,42.99-7.46,54.39,32.57,54.39,18.99,0,26.94-1.4,38.5-3.5l13.39-50.25h-28.55s-9.51,34.94-9.51,34.94c-2.01.19-4.52.48-8.42.48-18.67,0-16.58-5.62-8.72-36.07,8.19-31.66,12.95-37.43,24.61-37.43s11.31,7.56,8.45,17.11h28.45c4.62-17.84,1.53-33.65-31.74-33.65h0ZM779.19,14.5c-32.04,0-45.94,5.7-58.54,54.38-10.9,42.16-2.16,54.37,30.41,54.37s46.25-6.82,58.54-54.37c8.9-34.42,7.1-54.38-30.41-54.38ZM874.6,15.76c-21.95,0-32.15.47-38.14.21l-26.56,102.64c-.45,1.75.57,3.17,2.28,3.17h25.47l23.06-89.19c2.35-.01,5.93-.21,9.54-.21,12.36,0,13.99,4.4,10.73,17.01l-17.91,69.21c-.45,1.75.57,3.17,2.29,3.17h25.45l18.72-72.39c6.48-25.08-4.53-33.63-34.95-33.63ZM156.53,15.96l-26.55,102.63c-.45,1.75.57,3.17,2.29,3.17h25.45l23.06-89.19c2.47-.01,4.81-.11,10.68-.11,9.81,0,13.45,6.06,11.33,14.24-2.79,10.75-11.13,16.8-21.05,16.8h-3.75l10.6,51.21c1.26,5,3.77,7.05,9.5,7.05h22.73l-9.87-42.41c-.95-3.16-1.98-5.45-3.48-7.34-.19-.24-.24-.57.11-.68,12.17-3.76,20.12-11.44,23.49-24.45,4.45-17.21-6.4-30.92-33.82-30.92h-40.74ZM303.52,15.96l-26.53,102.63c-.45,1.75.57,3.17,2.29,3.17h33.93c42.62,0,49.81-8.15,61.5-53.36,10.15-39.28,3.89-52.45-33.09-52.45h-38.09ZM654.11,15.96l-4.4,17.19h28.29c.29,0,.29.35.02.55-4.52,3.4-7.27,8.25-8.59,13.31l-18.56,71.59c-.45,1.75.58,3.17,2.29,3.17h27.33l22.96-88.62h14.01c7.86,0,12.64-3.29,15.29-10.15l2.68-7.04h-81.33ZM255.1,15.97l-26.55,102.64c-.45,1.75.57,3.17,2.29,3.17h26.9l26.56-102.64c.45-1.75-.57-3.17-2.29-3.17h-26.91ZM520.33,15.97c-18.37,0-23.89,3.28-31.03,30.92l-13.15,50.54c-4.04,16.97,1,24.34,14.86,24.34h38.22c7.53,0,12.37-4,14.7-10.14l3.13-8.08h-38.36c-3.71,0-5-1.13-4.31-4.13l6.46-25.28h38.06l4.29-16.59h-38.07l4.33-16.85c1.14-4.41,4.26-8.15,10.39-8.15h30.48l4.29-16.6h-44.29ZM955.71,15.97c-18.38,0-23.9,3.28-31.04,30.92l-13.15,50.54c-4.04,16.97,1,24.34,14.85,24.34h38.23c7.53,0,12.36-4,14.7-10.14l3.14-8.08h-38.37c-3.7,0-5-1.13-4.31-4.13l6.46-25.28h38.06l4.3-16.59h-38.07l4.32-16.85c1.15-4.41,4.28-8.15,10.4-8.15h30.47l4.3-16.6h-44.29ZM774.93,31.02c12.21,0,13.55,6.58,5.68,37.01-7.79,30.16-15.49,37.43-24.94,37.43-12.22,0-14.03-4.45-5.51-37.43,7.1-27.44,13.87-37.01,24.77-37.01ZM336.9,32.48c16.52,0,16.5,5.46,8.61,35.94-7.96,30.84-12.59,35.28-28.3,35.28h-7.81l18.39-71.12c2.37-.01,3.25-.11,9.11-.11h0Z"/>
  <path id="path151" class="st0" d="M16.64,69.67L33.21,11.53C34.81,5.54,41.42.09,48.1.09h50.69c.85,0,1.12,1.11.46,1.56-26.36,18.04-58.14,44.79-81.19,68.76-.58.63-1.65.12-1.42-.75"/>
</svg>