<?xml version="1.0" encoding="UTF-8"?>
<svg id="Lag_1" xmlns="http://www.w3.org/2000/svg" version="1.1" viewBox="0 0 222.2 142.7">
  <!-- Generator: Adobe Illustrator 30.0.0, SVG Export Plug-In . SVG Version: 2.1.1 Build 123)  -->
  <defs>
    <style>
      .st0 {
        fill-rule: evenodd;
      }

      .st0, .st1 {
        fill: #fff;
      }
    </style>
  </defs>
  <g>
    <path class="st1" d="M119.44,8.2c0,4.53-3.77,8.23-8.32,8.23s-8.33-3.7-8.33-8.23,3.76-8.2,8.33-8.2,8.32,3.71,8.32,8.2Z"/>
    <path class="st1" d="M111.09,85.79c10.84,0,21.09-10.41,21.09-23.05,0-2.97-.43-2.99-.89-6.15l-20.13,19.77-.18-.22-.22.22-20.1-19.77c-.49,3.16-.95,3.18-.95,6.15,0,12.64,10.28,23.05,21.11,23.05h.27Z"/>
    <polygon class="st1" points="93.46 50.43 111.21 67.87 128.53 50.76 129.34 52.99 111.21 70.84 92.66 52.65 93.46 50.43"/>
    <polygon class="st1" points="96.58 46.38 111.21 26.58 125.74 46.38 111.21 60.89 96.58 46.38"/>
    <path class="st1" d="M100.07,23.62c-4.98-4.8-11.04-14.73-22.94-14.73s-15.06,9.85-15.6,14.56l-.08.71h-6.31.09c0-5.23,3.94-21.09,20.89-21.09s24.87,15.54,31.77,21.24c-1.52,2.45-13.25,20.6-26.38,20.6-14.02,0-19.68-9.92-19.8-20.75h38.25l.11-.55Z"/>
    <path class="st1" d="M122.08,23.62c4.99-4.8,11.07-14.73,23.01-14.73s15.06,9.85,15.57,14.56l.03.71h6.36-.11c0-5.23-3.94-21.09-20.87-21.09s-24.88,15.54-31.8,21.24c1.53,2.45,13.28,20.6,26.4,20.6,14.05,0,19.69-9.92,19.82-20.75h-38.25l-.15-.55Z"/>
  </g>
  <g>
    <path class="st0" d="M202.77,90.87c1.98,0,3.57,1.58,3.57,3.54s-1.6,3.55-3.58,3.55-3.59-1.58-3.59-3.55,1.6-3.54,3.59-3.54h0ZM202.75,91.2c-1.78,0-3.22,1.44-3.22,3.22s1.44,3.23,3.23,3.23,3.23-1.44,3.23-3.23-1.44-3.22-3.23-3.22h-.01ZM201.44,92.21h0v4.36h.44v-1.91h.89l1.5,1.91h.5l-1.54-1.96c.4-.07,1.15-.34,1.15-1.2,0-.35-.13-.65-.42-.86-.28-.21-.73-.34-1.47-.34h-1.05ZM201.88,94.35h.89c.74,0,1.15-.37,1.15-.9,0-.74-.63-.92-1.43-.92h-.6v1.82h0Z"/>
    <path class="st0" d="M0,94c0-6.73,11.43-6.73,11.39-.02l.02,10.27h6.62l10.21.09c.69.17,1.5,0,2.2.1,4.03.54,7.47,3.65,8.6,7.57.21.81.4,1.62.45,2.47v23.26c-.17,1.78-1.3,3.39-2.85,4.25-2.03,1.14-4.51.81-6.37-.48-1.27-1.09-2.12-2.47-2.26-4.11v-19.36c.05-.6,0-1.24-.42-1.66-.59-.59-1.44-.67-2.22-.74h-13.81l-.07.07c-.03,1.68.07,3.35-.1,4.92v16.94c-.19,2.05-1.81,4.07-3.77,4.66-2.01.74-4.25.29-5.85-1-1.15-.83-1.58-2.04-1.77-3.37v-43.86h0Z"/>
    <path class="st0" d="M46.13,104.84c2.24-.97,4.76-.57,6.51,1.17,1.13,1.14,1.53,2.66,1.6,4.11l-.03,12.24v7.54c.05.83.52,1.59,1.3,1.92l.82.1,12.54-.05c.75-.21,1.44-.9,1.56-1.74l.07-2.2v-17.87c.07-2.12,1.49-4.18,3.35-5.11.49-.1.87-.43,1.41-.41l.09-.09c2.27-.24,4.31.5,5.68,2.37.63.93.97,1.97.99,3.14l.04,23.98c-.02,5.13-5.35,8.15-9.85,8.08l-20.08.02c-4.43-.02-9.36-2.97-9.36-8.1v-24.35c.26-1.91,1.53-3.88,3.35-4.73h0Z"/>
    <path class="st0" d="M85.05,113.84c.4-3.78,3.07-7.51,6.72-8.81.95-.31,1.8-.57,2.83-.64l21.74.12c4.05.33,7.85,3.73,8.93,7.58.26.95.45,2.09.42,2.99v22c-.19,2.02-1.67,4.23-3.61,4.75-2.03.76-4.24.43-5.87-1.03-1.23-1.16-1.89-2.63-1.95-4.37l-.05-19.94c-.05-.59-.35-1.21-.92-1.52-.38-.19-.85-.19-1.22,0-1.44,1.07-.73,2.9-.92,4.44v17.82c-.26,1.81-1.44,3.68-3.21,4.45-2.33.97-4.88.57-6.69-1.19-1.14-1.12-1.56-2.55-1.66-4.09v-19.82c-.16-.12,0-.38-.11-.54-.26-.6-.68-1.07-1.34-1.16-.52-.03-.97.33-1.28.74-.33.33-.28.81-.33,1.28l.05,17.39c.21,2.11-.14,4.92-1.98,6.51-1.11.86-2.38,1.45-3.92,1.36-.33.12-.72,0-1.08-.07-2.27-.43-4.01-2.47-4.46-4.68-.19-.33,0-.83-.16-1.19l.07-22.39h0Z"/>
    <path class="st0" d="M172.02,113.73c.49-3.85,3.09-7.6,6.96-8.89.8-.38,1.79-.38,2.65-.5h15.97c.33.1.68.1,1.01.17,3.56.52,7.05,3.58,8.16,7.01.82,2.11.52,4.56.52,6.93-.18,3.54-2.76,6.87-5.91,8.22-1.25.48-2.62.9-3.94.83h-13.06c-.47.17-.94.14-1.32.48-.33.29-.45.69-.52,1.07.07.66.61,1.16,1.18,1.4l2.5.05,15.44.11c2.17.13,4.36,1.41,5.23,3.57.83,1.81.5,4.04-.8,5.53-1.15,1.26-2.69,2.02-4.36,2.02l-19.71-.05c-3.71.05-7.24-2.47-8.93-5.8-.8-1.52-1.13-3.28-1.18-5.08l.12-17.08h0ZM184.01,114.44h0c-.78,0-1.42.64-1.42,1.43s.64,1.42,1.42,1.42h10.7c.77,0,1.41-.64,1.41-1.42s-.63-1.43-1.41-1.43h-10.7Z"/>
    <path class="st0" d="M222.2,93.95v43.67c0,6.25-11.76,6.08-11.76,0l-.05-43.67c.02-3.33,2.96-5,5.89-5.01h.06c2.94.01,5.86,1.68,5.86,5.01h0Z"/>
    <path class="st0" d="M128.76,113.98c.41-3.78,3.07-7.51,6.72-8.81.94-.31,1.79-.57,2.83-.64l21.73.12c4.06.33,7.85,3.73,8.93,7.58.26.95.45,2.09.42,2.99v22c-.19,2.02-1.67,4.23-3.61,4.75-2.03.76-4.24.43-5.87-1.02-1.23-1.16-1.89-2.64-1.96-4.37l-.05-19.93c-.05-.6-.35-1.21-.92-1.52-.37-.2-.85-.2-1.23,0-1.44,1.07-.73,2.9-.92,4.44v17.82c-.26,1.8-1.44,3.68-3.21,4.44-2.34.97-4.88.57-6.7-1.19-1.13-1.11-1.56-2.54-1.65-4.08v-19.82c-.16-.12,0-.38-.12-.55-.26-.59-.69-1.07-1.35-1.16-.52-.02-.96.33-1.27.73-.33.34-.29.81-.33,1.28l.04,17.4c.21,2.11-.14,4.92-1.97,6.51-1.11.86-2.38,1.45-3.92,1.35-.33.12-.73,0-1.08-.07-2.26-.43-4.01-2.47-4.46-4.68-.19-.33,0-.83-.17-1.19l.07-22.38h0Z"/>
  </g>
</svg>