<?xml version="1.0" encoding="UTF-8"?>
<svg id="Lag_1" xmlns="http://www.w3.org/2000/svg" version="1.1" viewBox="0 0 1920 1080">
  <!-- Generator: Adobe Illustrator 30.0.0, SVG Export Plug-In . SVG Version: 2.1.1 Build 123)  -->
  <defs>
    <style>
      .st0 {
        stroke-miterlimit: 10;
      }

      .st0, .st1 {
        fill: #fff;
        fill-rule: evenodd;
        stroke: #fff;
      }

      .st1 {
        stroke-miterlimit: 33.89;
        stroke-width: 4.8px;
      }
    </style>
  </defs>
  <path class="st1" d="M549.08,635.55l188.04-191.11,160.21,159.41,82.21-81.48,1.75,68.44-267.24,266.37-34.31-34.07,43.77-41.19-124.78-127.7-46.09,44.45-3.56-63.11h0Z"/>
  <path class="st1" d="M1364.13,390.22h266.05v59.85h-41.98v213.33l164.1-89.78.59,156.74h-390.25v-61.94h43.77l.28-218.35h-42.26l-.3-59.85Z"/>
  <path class="st1" d="M714.05,430.52c56.76,0,103.45-46.81,103.45-104.01s-46.7-103.68-103.45-103.68-103.78,46.51-103.78,103.68,46.43,104.01,103.78,104.01Z"/>
  <path class="st1" d="M168.6,394.09h265.79v59.83h-41.71v213.32l164.1-89.76.28,156.72H167.11v-61.63h43.47l.31-218.65h-42.57l.28-59.83h0Z"/>
  <path class="st0" d="M1205.09,729.77h-277.01v-60.15h46.99l-.89-217.47h-46.99v-58.97h279.36c81.01-.29,145.45,56.3,146.35,167.68-.58,115-72.13,168.9-147.81,168.9h0ZM1149.78,624.57c32.25-.28,59.16-18.66,59.43-68.12,0-48.01-27.78-69.04-58.82-69.04l-.62,137.16h0Z"/>
</svg>