<?xml version="1.0" encoding="UTF-8"?>
<svg xmlns="http://www.w3.org/2000/svg" version="1.1" viewBox="0 0 192.78 85.04">
  <!-- Generator: Adobe Illustrator 30.0.0, SVG Export Plug-In . SVG Version: 2.1.1 Build 123)  -->
  <defs>
    <style>
      .st0 {
        fill: none;
      }

      .st1 {
        fill: #fff;
      }
    </style>
  </defs>
  <g id="Lager_1">
    <g>
      <path class="st1" d="M152.34,34.39c-5.54.43-9.91,4.91-10.26,10.4-.41,6.49,4.73,11.86,11.13,11.86,2.31,0,5.44-1.15,6.85-3.58v3.28h4.32v-10.64c0-6.93-5.63-11.83-12.04-11.33ZM159.64,45.84c-.19,3.66-3.44,6.51-7.24,6.04-2.91-.36-5.24-2.73-5.57-5.63-.43-3.88,2.59-7.17,6.38-7.17,3.44,0,6.24,2.7,6.42,6.09v.67Z"/>
      <path class="st1" d="M128.75,34.36c-5.86.16-10.9,4.73-10.9,11.27,0,6.03,4.88,11.07,11.16,11.07,4.38,0,8.66-2.64,10.35-6.92l-4.3-1.28c-.78,1.76-2.66,3.29-4.82,3.7-3.02.56-5.8-1.28-6.89-3.34l16.72-4.56c-.49-4.29-4.26-10.13-11.32-9.93ZM122.5,45.05c0-2.33,1.36-5.01,4.38-6.14,3.43-1.29,6.43.42,7.69,2.83l-12.07,3.32Z"/>
      <g>
        <path class="st1" d="M91.96,38.89v-4.58c-4.17,0-5.65,2.05-6.27,3.19v-2.46h-4.75v21.32h4.88c0-6.59-.01-6.48-.01-10.46,0-4.92,2.85-6.84,6.16-7.01Z"/>
        <polygon class="st1" points="47.9 47.79 33.32 30.62 28.35 30.62 28.35 56.32 33.49 56.32 33.49 39.13 48.25 56.35 52.81 56.35 52.82 30.62 47.9 30.62 47.9 47.79"/>
        <path class="st1" d="M114.85,28.35h-4.6v8.38c-1.09-1.44-4.5-2.58-7.44-2.34-5.49.44-9.91,4.91-10.26,10.4-.41,6.49,4.73,11.88,11.13,11.88,2.39,0,5.71-1.14,6.85-3.16v2.85s4.3,0,4.3,0v-10.64c0-.07,0-.14,0-.21s0-.14,0-.21v-16.95ZM110.12,45.84c-.19,3.66-3.44,6.51-7.24,6.04-2.91-.36-5.24-2.73-5.57-5.63-.43-3.88,2.59-7.17,6.38-7.17,3.44,0,6.24,2.7,6.42,6.09v.67Z"/>
        <path class="st1" d="M66.87,34.34c-6.17,0-11.17,5-11.17,11.17s5,11.17,11.17,11.17,11.17-5,11.17-11.17-5-11.17-11.17-11.17ZM66.86,51.93c-3.55,0-6.42-2.88-6.42-6.42s2.88-6.42,6.42-6.42,6.42,2.88,6.42,6.42-2.88,6.42-6.42,6.42Z"/>
      </g>
      <line class="st1" x1="122.54" y1="45.12" x2="122.54" y2="45.12"/>
      <line class="st1" x1="134.67" y1="41.71" x2="134.67" y2="41.71"/>
    </g>
  </g>
  <g id="Lager_3">
    <rect class="st0" width="192.78" height="85.04"/>
  </g>
</svg>