<?xml version="1.0" encoding="UTF-8"?>
<svg id="Layer_1" xmlns="http://www.w3.org/2000/svg" version="1.1" viewBox="0 0 297.64 139.5">
  <!-- Generator: Adobe Illustrator 30.0.0, SVG Export Plug-In . SVG Version: 2.1.1 Build 123)  -->
  <defs>
    <style>
      .st0 {
        fill: #fff;
      }

      .st1 {
        fill: #060e0f;
        fill-rule: evenodd;
        stroke: #fff;
        stroke-linejoin: round;
        stroke-width: 2px;
      }
    </style>
  </defs>
  <g>
    <path class="st0" d="M280.59,88.5c-.06-.69.03-1.37.02-2.05-.04-1.77-.14-3.81-.3-5.57-.14-1.51-.89-3.14-1.1-4.61-.91-6.3-1.69-12.81-2.21-19.16-.96-3.55-.49-7.44-.98-11.21-1.04-8-2.2-16.42-5.76-22.1-.15-.12-.48-.06-.57-.26-1.07-1.65-2.7-2.74-4.7-3.82-.55-.3-1.1-.55-1.71-.87-1.16-.59-2.11-1.61-3.14-1.93-1.03-.32-2.42-.05-3.54-.15-2.55-.21-4.92-.85-7.38-.93-.85-.03-1.74.03-2.6,0-2.48-.07-4.82-.09-7.43.19-1.58.17-3.11-.02-4.74,0-1.39.01-2.8.41-4.17.34-.28-.01-.51,0-.74.03-15.19,1.58-33.41,2.58-49.27,2.6-.56-.33-1.39-.16-2.33-.1-1.29.09-2.84.21-4.18.06-1.16-.13-2.61-.95-3.18-.35,0-.16-.08-.24-.2-.27-.2.14.12.22-.08.28-.17-.18-.38-.05-.1-.27-.63.15-.77.59-1.02.04-.97.02-2.2.13-3.53.13,0-.12-.01-.25-.01-.37-.22.24-.38.01-.37.01-1.96-.37-3.5.4-5.57.21-1.13.54-2.6.44-4.07.43-1.02,0-2.11-.13-3.17-.16-3.74-.09-6.82-.04-11.08-.42.18-.45.64.12.73-.31-.37.07-.99-.08-1.2.14.17.17.28-.14.38.17-.22-.2-.67.31-.84-.06,0-.15.26-.06.27-.2-.78-.02-1.73-.14-2.14.08-.74-.3-2.24-.11-3.25.03.11,0,.22.02.19.18-.23-.12-.68.09-.29-.27-1.07.05-1.69.42-2.68.29-.01.11.02.26-.08.28-.22-.13.17-.3-.2-.27-.29-.02.25.26-.08.28-.15-.29-.48.06-.47-.26-1.98.41-4.63.2-5.56.58-1.52-.41-2.66.2-4.46.07-.01,0,0-.18,0-.18-1.13-.33-2.96-.05-4.37.07-4.83.41-9.08-.06-12.93-.07-.02.07,0,.18-.09.19-1.18-.16-2.49.04-3.61.41-.46-.26-1.31-.07-1.85.26-.04-.16.13-.24,0-.28-.25.43-.99-.04-1.1.32-.95-.23-2.62.22-3.91-.04-.04.11-.09.21-.17.29-1.55-.68-3.69.21-5.23-.55-.37.12-.59-.03-.92.22-.5-.5-2.04.09-2.97.11-.87.02-2.19-.48-2.23-.1-.61-.29-1.96-.15-2.04.08-.65-.47-1.3.23-1.69-.31-.53.2-1.21-.21-1.96-.11.12-.13.05-.28-.11-.37-.32.46-1.12-.14-1.67.16.22-.11-.16-.26-.2-.27-.93-.17-2.77-.34-3.82-.23.17-.2-.75-.27-.85-.25-.25.05-1.42-.25-1.95.07,0-.09,0-.19-.01-.28-.16.06-.55-.09-.55.11.75.13-1.29-.09-.94-.15-.18-.02-.18.13-.27.2-.18-.32-.95-.28-1.49-.13-.01-.12-.12-.12-.1-.27-1.68.04-3.35-.11-5.22-.36-.03.16.15.23.01.28-.09,0-.11.08-.18.1-.23-.48-1.49-.45-2.05-.2,0-.11.16-.22-.01-.28.08.42-1.23.22-.56.02-1.76.14-2.58.24-3.91-.04-.47.5-1.21.02-1.76.07-.23.02-.48.41-.28.01-.27-.01-.31.19-.45.3-.01-.15-.24-.06-.2-.27-.72.55-.84-.29-1.85.26-.52-.15-1.08-.14-1.86-.11-.73.08-1.9.12-2.6.1,0,.11.03.26-.08.28-.55-.56-.99.16-1.39.14-.14,0-.14-.27-.29-.27-.12,0-.3.24-.46.2,0-.24-1.29-.17-1.48.24-.12-.89-1.49.45-1.03-.24-.97.41-2.5.3-3.13.77-.18-.03-.18-.26-.47-.17.28.49-1.72.12-2.02.63-.11-.47-1,.56-.93.04-.2.2-.83.43-.65.12-1.55.42-3.24.82-4.97,1.3-.01.11.02.26-.08.28-2.63.31-4.29,2.42-6.55,3.87-.02.22.03.36.11.46-.4-.34-.61.27-.83.31-.29.99-1.59,2.14-1.65,3.13-.67.34-.67,1.16-.94,2.08-.02-.11,0-.26-.1-.27-.03.16-.42.43-.16.56.02-.1.15-.23.18-.1-.48.77-.98,1.42-1.03,2.27-.6,0-.2,1.07-.63.58.21.51-.22.65-.05,1.12-.12,0-.13-.11-.28-.08.11.65-.21.82-.41,1.32-.04.09,0,.77-.44.76.22.47-.43.68-.23,1.4-.36-.12-.17.26-.46.2-.1.3.3.06.2.36-.87.37-.79,1.43-.85,2.08-.3.09-.2-.23-.38-.26-.07.3.16.28.2.46-.57.25-.24.34-.62.86.22.32.26-.36.37-.11-.02.32-.67.88-.54.58-.29.67.18,1.03-.5,1.6.07.02.18,0,.19.09-.37-.13-.18.25-.36.29.01.34.28.41.4.63-.19-.05-.41-.3-.46.02.16.02.22.15.2.36-.26.1-.23.14-.36.2.4.46-.4.89.15,1.39-.53-.2.06.15-.36.2.26.58-.32.75.04,1.02-.13,0-.2.05-.27.1.16.47-.21.35.21.55-.42.45-.7,1.14-.4,1.78-.42.21-.33,1.36-.41,1.6.02-.08.24-.42.27-.2-.24.17-.66.66-.25.66-.22.14-.15.33-.07.56-.28-.02-.14.34-.36.39.13,0,.2-.05.27-.1.04.16-.13.24.01.28,0-.05.07-.11.09,0-.32.16-.18.36-.44.67.03.19.25-.15.29.17-.38-.18.04.4-.26.57.13.22.34-.11.37.08-.03.24-.11.43-.26.57-.15,0-.06-.26-.2-.27-.27.37.16.61.22.92-.12,0-.08.17-.18.19-.12-.24.27-.41-.11-.37.11.46-.25,1.33-.13,1.59.08.16.38.09.38.17,0,.12-.45.03-.37-.08.02-.03-.22,2.04.06,1.58-.06.42-.53.57-.15.94-.12,0-.13-.11-.28-.08.45.47-.4.96.15,1.48-.15.16-.37.26-.35.57.06.23.24.32.39.45-.62.5-.32.96-.48,1.97.24-.04.4.02.38.26-.09,0-.11.08-.18.1.03-.35-.29-.27-.38-.08.46.34-.27,1.12.34,1.66-.55-.19.06.83-.45.48.04.57-.15.99.15,1.39-.42.26-.19.79-.31,1.59.37.14.02-.4.26-.38.01.33-.06.85-.26.47.25.34-.11.91.22.83-.02.13-.15.16-.17.29.17.29.23.29.03.74.16.03.23-.15.28-.01-.03.36-.48,1.11-.16.75.04.26-.33.58-.06.75-.02-.17.08-.22.27-.2,0,.16.03.29.11.37-.2-.2-.3.09-.47-.07-.14.3.36.37.11.46-.04-.22-.26-.21-.28.01.45,0-.15.17.02.46.18.02.18-.13.27-.2.03.26.03.51-.26.47.03.26.19.38.21.64-.14-.03-.16-.11-.28.01.1.62-.14.92.32,1.01-.08.1-.34.04-.27.29.1.18.25.32.39.45-.47-.18-.61.75-.34.94.17-.15-.18-.38.17-.47.1.32-.47.69-.06.93-.07-.15.17-.41.18-.19-.16.06.02.44-.17.47.02-.46-.52.35-.26.38,0-.24.65.63.02.46-.09.66.14.68.05,1.39.61-.03,0,.59.21.64.09-.13.31-.13.36-.29.01.74-.58.08-.74.21.12.22.5.17.48.54-.39-.25-.59.4-.53.67.03-.12.11-.19.27-.2-.01.18.11.2.11.37-.06.1-.29.49-.36.29.1,0,.07-.12-.1-.09.02.23.03.45-.07.56.4.07.24-.38.54-.39-.26.59-.5.95-.22,1.5-.23.13-.31-.36-.38-.08.38.13-.21.36.2.36.08.29-.5.42-.16.66-.05-.2.26-.52.36-.29-.29.18-.43.93-.14,1.12-.13,0-.21-.04-.28-.08.12.49.52.54.04.93-.26-.13.18-.42-.2-.37.33.53-.05.94.15,1.48-.11.02-.26,0-.27.1.22.75-.35,1.4.27,2.13-.46,0-.44.44-.09.1,0,.12.01.25.01.37-.13,0-.2-.04-.28-.08,0,.44.19.95-.16.56.04.21.22.46-.08.28.36.44-.16,1.08.25,1.76-.25.08-.2-.18-.38-.17.05.58.2.64.23,1.11-.13-.02-.16-.15-.29-.17.26.49-.09.46.22.83-.12,0-.13-.11-.28-.08-.07.3.09.35.2.46-.13,0-.2-.04-.28-.08.07.42.1.52.31.92-.14-.1-.23-.09-.27.1.29.29.43.85.03.84.39-.05.11.33.01.37.17.23.42.39.58.63-.18-.03-.18-.26-.47-.17.05.22-.16.21-.08.47.15,0,.32-.02.29.17-.13,0-.2-.04-.28-.08.15,1.02-.06,1.15-.02,1.86.02-.07,0-.18.09-.19-.2.3-.25.86.13,1.02-.39.3.02,1.06-.33,1.22.26-.05-.05.51.2.46.09-.1.18-.19.27-.29-.07.55-.57.97-.13,1.49-.3-.18-.12.07-.08.28-.09,0-.11-.07-.19-.09.1.38,0,.28.2.36-.32.39.33,1.16-.13,1.49.11.04.21.09.29.18-.16.57-.11,1.08.08,2.04.04.02.08.02.1.02.02-.05.05-.1.07-.15,0-.09-.01-.18.09-.16-.04.05-.06.11-.09.16,0,.08,0,.15-.07.15-.21.64.44,1.22.24,1.64.66-.03.08.68.59.81-.18.13-.3.32-.35.57.52.73.66,1.29.93,2.38.16.03.23-.15.28-.01-.41.25.2,1.02.29.36-.23.02-.28.19-.37-.08.12,0,.08-.17.18-.19.02.17.31.05.29.27-.22.36.18.9-.15.84.34.37.58.57.41.91.18.08.3-.29.37-.01-.04.14-.13.24-.17.38.33.06.28.53.58.63-.07-.15.17-.41.18-.19.03.17-.1.21-.08.37.2.2.63.43.96.8-.03-.03-.19-.04-.19-.09.09.78,1.71,1.19,1.74,1.79.18.02.18-.13.27-.2-.17.34.05.34.12.65.3.04.28-.18.46-.02-.16.47.81.85,1.06.89.1.52,1.05.66,1.53,1.24.05-.17-.29-.37-.02-.46.09.18.32.43.12.65.6-.19.49.57,1.04.33.02.57,1.06.26.87.9.81.01.78.11,1.33.6.42-.19.49-.07.57.26.41-.03.49.28.84.06,0,.23.15.29.29.36.07-.51.25.15.47.07.05-.12-.17-.37.16-.56.09.3.09.19-.08.37.2.04.2.14.1.27.35.09.46.22.74-.03.05.42.72.19.77.62.42-.11.52.04.83-.12-.07.45.28.2.47.17.03.44.18.36.19.18.03.19.2.24.29.36.41-.28.46.21.83-.03.14.59.99.13.95.61.02-.13.2-.11.27-.2,0,.14.02.22.1.27.61.41,1.92.11,2.61.09.83.6,2.37.04,2.53.56.21-.1.56-.08.74-.21-.05.47.76.02,1.02.05.09.01.05.3.01.28.32.15,1.17.08,1.39-.14-.03.29.24.25.39.36.02-.18-.13-.18-.2-.27.12-.01.12-.12.27-.1-.24.51.44.13.75.16.2.02.36.24.57.26.54.05.97-.22,1.3-.05-.07.02-.18,0-.18.1.49-.2.86.03,1.29-.24.06.19.29.17.11.37,1.01-.25,1.54-.09,2.31-.27-.27.35.91.11,1.12.14-.1-.02-.23-.14-.1-.18.79.49.94-.07,1.41.32.41-.31.79,0,1.01-.41.16.18,0,.12.01.37.39.09.36-.21.64-.21.23.12.06.18.2.27-.03-.24,1.43-.2.93.06.26-.02.38-.19.64-.21-.09.38.47.05.37.08.73-.22,1.43.21,1.86.12.62-.13.94.11,1.48-.24.18.51.94.51,1.4.13-.04.72.37-.02.93.06-.05.09-.2.35.1.27.02-.26.12-.1.55-.11.22-.13-.18-.27.08-.37.14.24.39.29.39.45.22-.05.56-.25.92-.13.19-.17.07-.29.17-.38.15.06,0,.46.29.36.43-.37.9.11,1.48-.24-.33.36.58-.12.1.27.78-.36,1.76-.07,2.41-.28-.07-.02-.18,0-.19-.09.18.01.2-.11.37-.11.16.18,0,.12.01.37.31-.51.87.13,1.1-.41.24.31,1.3.32,1.77.03,0,0-.04.04.28.08.23.03.43-.21.64-.21.33,0,.68.24,1.12.24.21,0,.38-.24.55-.21.5.08.81.33.93-.04.18-.03.19.12.29.18.14-.23.45,0,.59-.27,0-.03,0-.07.05-.13-.01.05-.03.09-.05.13.03.12.39.14.44.32.09-.24.92-.08.64-.39.14.27.73.04.85.34.04-.29.45-.24.64-.4.26.13-.18.42.2.36.15-.05.07-.3.36-.2.01.1-.13.15,0,.19.17-.23.34.17.17-.29.21.21.36-.05.65-.02,0,.13-.04.21-.08.28.25-.18.92-.3.74-.03.3.07.12-.31.36-.29-.24.43.5.26.56-.02.02.15,0,.32.2.27.13-.14.27-.29.45-.39-.04.22.29.39.57.35.43-.06.95-.31,1.66-.34,1.08-.05,2.74.14,2.69-.2.93.42,2.23.07,3.25-.03-.14-.02-.02-.15.09-.19,0,.12.17.08.19.18,0,.12-.11.13-.08.28.23-.4,1.32-.13,1.85-.35.01.1-.13.15,0,.19.8-.08,2.14-.34,2.41-.09.48-.25,1.55-.16,1.86-.07-.01-.16.06-.24.18-.29.53.31,1.66.21,2.22-.18.16.45.86.27,1.49.13-.37.28.83,0,.84.06-.1-.01-.15-.1-.19-.18.49.04,1.37.33,1.67-.16,0,.36.08.03.28.08.01.1-.13.15,0,.19.87-.2,1.61.09,2.49-.47.05.41.36.02.76.34-.02-.27.71-.2.63-.49.05.35.41-.08.2.27,1.84-.51,2.46-.01,3.9-.24-.09,0-.12-.16,0-.19.83.28,1.75-.22,2.42.1.33-.05.14-.3.56-.02,0-.24.12-.36.36-.39-.02.19-.24.19-.27.38.53-.25,2.19-.27,2.41-.18.03-.12.11-.19.27-.2.91.02,2.75.03,2.97-.3.13.02.16.15.29.17,0-.13-.05-.2-.1-.27.49.21,1.02.42,1.49-.05.32.27,1.02-.05,1.5.22.13-.06,0-.36.17-.38.56.63,1.95-.31,2.62.37.37-.36.48-.03.73-.4-.04.37.16.21.28-.01.12,0,.25-.01.37-.01,0,.12-.11.13-.08.28.46-.16.45-.23,1.01-.32.13.05.03.36.2.36.22-.09,1.14-.38.75.06.49,0,.33-.28.82-.4-.09.29-.05.26.2.36.1-.21-.06-.28.26-.38,0,.13-.04.21-.08.28.31,0,.4-.23.54-.39.16.24.23.16.51.16-.02,0-.01,0,.06,0-.02,0-.04,0-.06,0,.07.01.63.08.68.13.14-.08,0-.31.21-.25.12.03,0,.36.01.37,0,0,.77.03,1.11-.13.08-.04.96-.03,1.2-.32-.22.31.19.12.37.08.04.21-.26.11-.27.29.42-.4,1.31.22,1.29-.24.34-.02.74-.06.38.17.23-.19.43.08.55-.11-.11,0-.22-.02-.19-.18.27,0,.75,0,1.03.24.25-.52,1.01-.17,1.48-.33-.07-.02-.18,0-.19-.09.13,0,.2-.05.27-.1-.03.14-.1.16.01.28.73.15.96-.32,1.39-.05-.07.02-.18.01-.18.1.83.19.68-.35,1.58.03,0-.15-.02-.32.18-.28-.27.16.79.37.65.07.51.35.89-.22,1.48-.15-.03.13-.11.16,0,.28.42.09.36-.26.64-.3,0,.12-.11.13-.08.28.3-.16.57-.06.84.06.2-.33.51-.31.83-.12.19-.12.26-.36.54-.39.07.44.13.13.37.08-.02.21.04.35.2.36-.1-.43.25.12.27-.2-.11-.01-.15-.1-.19-.18.38.17,1.26.02,1.58-.06.02.25-.15.19.01.37.56-.03,1.16-.57,1.49.13.53-.57,1.57-.05,2.42-.09.06-.19.16-.34.39-.37.01.04.93.13.9.14.08-.04-.19-.32-.01-.28.31.07.05.17.11.46.45-.19.35.03.66.16-.11-.31.12-.31.36-.29-.13.46.43-.27.66.16.13-.15.22-.33.45-.39.08.17.14.37.3.45-.16,0-.24.08-.27.2.64-.15,1.5-.35,1.49-.06.12-.16.41-.16.55-.3-.11.13-.11.35.11.37.01-.11-.03-.26.08-.28.01.56.43-.03.56-.02.05,0,.07.26.1.28.56.3,1.03-.9,1.4.04.51-.19.69-.15,1.2-.32.24.07.31.31.48.45.63-.9,1.53.34,2.31-.27.53.6.79.37,1.31.14.04.13.12.15.01.28.22.03.19-.18.46-.11.02.11,0,.26.1.27-.03-.41.24.07.46-.02.03-.16-.15-.23-.01-.28.25.29.51-.42.56.16-.12,0-.09-.16-.19-.18-.02.19-.18.25-.27.38.23-.02.45-.03.56.07.23-.52.79-.27,1.19-.51.21.06.29.27.39.45.18.02.18-.13.27-.2.07.2-.25.3.1.27.19-.31.17-.22.73-.4.27.13-.22.4.02.46.14-.12.25-.24.36-.39.1.31.21.07.37-.01-.03.22.18.2.11.46.73.05,1.04-.56,1.57-.15-.17.05-.56-.11-.46.2.37-.21,1.05.22.82-.31.18.01.2-.11.37-.11.28.14.85.66.85.25.35.3.62.1,1.03.33.08-.18-.29-.3-.01-.37.05.3.37.31.57.44.01-.29.32-.3.54-.39,0,.18-.3.08-.27.29.43.09.89-.05,1.4.04-.03-.21,0-.35.17-.38-.02.16.19.54.29.27-.11-.01-.11-.14-.1-.27.63-.19.35.28.74-.21.15.13.4.15.48.35.42-.26,1.81-.25,1.69.31.58.15.44-.37.82-.4.11.13.12.23.01.37.51-.01.89.18,1.3.04-.11,0-.22-.02-.19-.18.19-.11.38-.02.64-.21-.05.19-.18.31-.26.47.35.09.29-.21.45-.3.14.68.77-.1.85.43.11-.2.26-.36.45-.48.03.16-.43.3-.17.38.02.03.62-.36.37-.01.47-.19.95-.26,1.49-.06.22-.12.2-.47.54-.48.18.17.17.07.11.37.36,0,.36-.32.73-.31.01.16,0,.29-.08.37.64-.1,1.13-.11,1.76-.16-.27.14,1.18.28,1.11-.13.48.36,2.1.24,2.4-.37.07.44.13.13.37.08,0,.13-.04.21-.08.28.4-.13.6-.4.83-.31,0,.15-.24.08-.18.29.37-.17.51-.25.75.06.23-.25.95-.2,1.3-.05.19-.35.92-.26,1.49-.05.04-.11.09-.21.17-.29.35.33,1.23-.04,1.3-.05.27-.02,1.24.3,1.38-.24.12.13.49-.01.39.36.34-.28,1.21-.3,1.58-.06,0-.59,1.22.04,1.48-.24-.21-.03-.34-.15-.39-.36.38-.02.65.02.48.35.75.07.94.04,1.1-.41-.01.33.36-.08.39.36.65.13.71-.29,1.1-.41-.1.73.95.02.94.43.62-.24,1.35.07,2.32-.27-.09,0-.12-.16,0-.19.38.22.6.48,1.04.43-.06-.24-.13-.32.08-.47.32.09-.02.36.2.46.37-.16,1.85.3,2.12-.55-.22.23.14.17.11.46-.14-.14-.38-.05-.46.11,1.06-.03,1.57.14,1.85-.26,1.23.6,2.22.29,3.72.14-.25.24.74.31.84.15-.08-.13.33-.13.63-.49.19.17.04.34.02.56.38-.07,1.04-.04,1.2-.14,0,.12-.16.09-.18.19,1-.44,1.72.1,2.97-.02.03-.18.02-.4.26-.38.04.18-.12.19-.17.29.26.21.55.15.83-.03,1.63.23,3.65.62,5.68.25.03.08.36.3.38.08-.2.02-.3-.07-.29-.27.24.03.51.03.66.16-.03.13-.11.16.01.28.47.07.72.02,1.49.04.19,0,2.05.28,1.57-.15.16.02.22.15.2.36.51-.07,1.01-.16,1.4.04.29-.12-.07-.35.36-.39,0,.13-.04.21-.08.28,3.89.43,8.57.74,12.58.74-.21.03-.35-.01-.38-.17.88.33,1.37.33,2.43.37-.02-.31.2-.32.09,0,2.99.36,5.79.82,8.85.5.48.49,1.76.3,2.42.19.02.03-.09.19-.09.19,1.1.24,1.92-.17,2.79-.01.13-.06,0-.36.17-.38.1.02.15.1.19.18-.11.01-.22.04-.18.19,1.3-.13,2.63-.1,3.51-.6,1.38.1,4.14-.46,5.18-.75-.07-.02-.11-.07-.1-.18.2.11.48.07.65-.02,1.63-.94,3.63-2.83,4.97-3.91.32-.26.76-.39,1-.6.76-.64,1.27-1.72,1.86-2.49.82-1.07,1.72-1.72,2.22-2.87.48-1.12.75-2.06.99-3.29.43-2.2,1.03-4.81,1.32-6.84.25-.34.26-.89.22-1.5.57-2.5.69-5.07.65-7.46-.05-3.27.65-6.34.39-9.5ZM77.26,41.23c-.07.81-.06,1.68-.09,2.59-.04,1.51-.41,3.19-.45,4.99-.04,1.79.23,3.56.18,5.35-.12,3.94-.62,7.94-.8,11.86-.11,2.33.05,4.72-.18,6.96-.21,2.12-.89,4.19-.89,6.24,0,3.86.06,7.33-.18,11.15-.06.89-.22,1.82-.27,2.76-.05.96.02,2.07-.18,2.94-.39,1.71-1.7,2.69-3.03,3.48-.77-.09-.93-.2-1.43.18,0-.47-.41-.18-.62-.27-.53-.22-.93-.84-1.69-.8-1.28-1.57-2.28-3.86-3.3-5.8-2.2-4.21-4.37-8.38-6.78-12.49-1.6-2.73-3.3-5.4-4.73-8.21-1.43-2.82-2.27-5.98-4.46-8.38.27,3.57.03,6.7.18,10.79.06,1.7.43,3.31.45,4.99.01,1.8-.28,3.61-.36,5.44-.06,1.4-.19,2.72-.36,4.1-.14,1.16.12,2.39,0,3.57-.1.92-.56,1.85-.62,2.77-.05.73.1,1.45,0,2.14-.18,1.28-.69,2.57-.71,3.92-.64.12-1.28.34-1.87.71v-.45c-.52.6-.83-.26-1.52,0-.15-.62-.42-.73-1.07-.71-.25-.64-.87-1.03-.98-1.69-.16-.96.16-2.67,0-4.19-.48-4.5-.19-9.18-.27-13.74-.12-7.1-.89-14.9-.53-21.76.16-3.1.18-6.01.18-9.19,0-.93-.31-1.98-.18-2.68.05-.27.4-.55.53-.98.13-.41.09-.79.27-1.07.4-.62,1.28-1.63,1.6-1.79.49-.23,2.93-.42,3.48-.09.16.1.85.34.62.62,1.65.45,2.2,3.09,2.77,4.64.08.15.39-.07.18.09.88,1.83,1.34,3.83,2.23,5.8.42.93,1.19,1.86,1.78,2.76.59.89,1.34,1.69,1.87,2.59,1.38,2.31,2.22,5.1,3.48,7.58,2.33,4.61,5.16,8.68,7.58,13.29-.27-3.56.81-6.7.98-10.44.05-1.14-.03-2.32,0-3.48.07-3.02.67-7.17.98-10.88.25-2.91-.08-6.05.09-9.1.08-1.47.51-2.94.54-4.37.02-1.25-.18-2.24.18-3.3.19-.55.61-.95.71-1.6.51-.23.79-.7,1.16-1.07.61.1.86-.55,1.25-.62.43-.08,1.2.56,2.14.45,1.09.4,1.52.94,1.87,2.32.13.49.43.95.45,1.16.02.27-.16.64-.18.89ZM112.85,85.91c-.19,1.63-.83,3.44-1.43,5.08-1.09,2.99-2.47,5.19-4.82,6.87-.53.38-1.11.83-1.61,1.07-1.56.75-3.43.91-5.17,1.34-1.54.37-3.11.55-4.55,1.34-.61-.32-.79.03-1.34.18-.51-.37-1.12-.42-1.61-.45-1.67-1.01-3.15-2.2-4.91-3.12-1.15-1.45-2.11-3.08-3.12-4.55-.23-.34-.59-.57-.8-.89-1.98-3-3-9.24-2.14-13.29.63-2.98,2.57-5.8,4.73-7.58,2.05-1.69,4.28-2.73,7.58-3.3,2.49-.43,5.15-1.16,7.76-.45,2.07.56,3.31,1.14,4.91,2.32,2.63,1.94,4.75,3.95,5.71,7.67.62,2.39,1.09,5.29.8,7.76ZM139.77,18.03c.04.28-.3.2-.45.3-.05-.29.19-.3.45-.3ZM137.82,18.01c.07.35-.64.2-.74.12.1-.05.37-.1.74-.12ZM143,72.27c-.6,2.55-3.87,2.86-6.16,2.23-1.11.3-2.71.15-3.83.45-2.03.53-3.06,2.04-4.82,3.21-.53,1.11-1.43,1.97-2.14,3.12.12,4.95.47,9.87-.54,14.27-.67.57-.81,1.69-1.25,2.5-.29.08-.12-.29-.36-.27-.35.13-.41.54-.8.62-.64-.53-1.42-.07-1.87-.89-.31.01-.4.26-.71.27-.17-1.06-.85-1.15-1.16-2.14-.07-.23-.31.25-.45,0-.18-.33.06-.53,0-.98.1.02.06.18.18.18-.09-2.01.66-4.1.36-6.15-.26-1.74-.93-3.33-.8-5.08.16-2.28-.33-5.44-.53-8.3-.12-1.6.24-3.39-.27-4.64.23-.37.54-.8.36-1.34.49-.9,1.12-1.68,1.69-2.5.42.19.77-.3,1.61-.18.05-.07.09-.14.09-.27,1.23.11,2.07.99,3.12.98.21,1.07,1.08,2.13.71,3.21.8-.12,1.39-.87,2.14-1.34,1.75-1.08,3.4-1.4,6.06-1.78,3.18-.46,7.14-.67,9.1,1.07.13.37.32.69.62.89,0,.47.2.86-.09,1.16.13.35.31.64.53.89-.38.15-.31.76-.8.8ZM196.06,96.97c-.37.68-1.1,1.04-1.6,1.7-.39.05-1.08.04-1.25.53-.41-.04-.77-.35-1.6-.18-.73-.47-1.16-.78-1.87-1.16-1.58-2.35-.45-6.64-.62-10.44-.17-3.74-.3-7.26-.89-10.26-.14-.72-.47-1.48-.8-2.14-.6-.62-1.56-.88-2.32-1.34-2.27-.31-5.15-.45-6.96.71-1.06.69-1.56,1.71-2.5,2.5-.16,1.12.52,4.27.62,6.51.08,1.61-.06,3.26,0,4.82.09,2.22.48,3.75.63,5.71-.22.32-.21.86-.36,1.25-.06.4-.41-.06-.54.27-.11,1.44-1.51,1.58-2.32,2.32-1.89-.01-3.1-.51-3.92-1.96-.34-.61-.77-1.8-.8-2.77-.03-.93.31-1.75.18-2.76-.37-2.82-.25-6.68-.71-9.72-.31-2.06-1.04-3.8-1.34-5.44-.35-.4-.66-.83-.89-1.34-2.16-1.59-5.99-2.07-7.67.27-.84,2.09-1.53,4.71-4.1,4.55-1.11,7.04,1.26,14.93-1.79,20.25-.56.11-1.12,1.12-1.43.89-.44.16.26.59-.18.8-.32-.17-.33.03-.62.09.03-.41.11-.51,0-.89-.32-.23-.46.33-.71.45-.13-.62-.77-.49-1.16-.45-.42-.44-.21-1.52-.98-1.61-.75-1.42.25-3.49.18-5.62-.05-1.5-.18-2.72-.54-4.1-.09-.34-.2-.12-.36-.36.68-5.71.24-12.59,1.25-18.2.02-.23.03-.45-.27-.36.44-.28.31-1.38,0-1.69.34-.31.4-.91.45-1.52.46-.22.77-.6.8-1.25.8-.53,1.53-1.14,2.59-1.43.65.06,1.18.73,1.87.45.53.27.79.81,1.43.98.23.94.45,1.29.71,1.78,2.43-1.35,5.16-2.21,8.38-1.78,3.52.46,6.51,2.58,8.47,4.46,1.64-1.34,3.69-2.26,5.98-2.94,6.12-1.05,12.46.61,15.61,4.1.04.59.42.83.8,1.07-.02.68.39.92.63,1.34.6,5.74,1.26,12.22.98,18.46-.09,1.94.31,4.05-.45,5.44ZM234.64,94.56c-.09.64-1.02,1.94-1.5,2.32-.5.4-1.19.77-1.73.89-1.4,1.92-4.67,1.48-7.28.63-.77-.25-1.67-.99-2.68-.8-.73.13-1.06.75-1.61,1.16-.46.34-1.18.52-1.79.89-1.22.75-2.64,1.99-4.46,2.23-3.59.47-5.82-1.53-9.01-2.23-.49-.75-1.35-1.07-1.96-1.78-1.25-1.45-1.88-5.34-1.61-7.85.24-2.17,1.38-4.42,2.32-6.16.79-1.46,1.55-2.96,2.85-3.93,2.99-2.21,7.64-3.53,11.86-3.48.17-2.49.24-6.86-.62-9.01-1.15-1.04-2.35-2.28-3.93-2.77-2.36-.72-4.95.4-7.22,1.25-.5-.3-.65.07-1.34-.09-.72-.44-1.61-.87-2.05-1.34-.16-1.12-.65-1.9-.98-2.85.46-.88,1.41-1.27,1.69-2.32,2.13-1.34,6.24-2.07,9.81-1.78,2.61.21,5.47,1.52,7.58,2.94,1.12.76,2.05,2.16,2.94,3.48,1.38,2.04,1.7,3.91,1.43,6.96-.1,1.08.1,2.07.18,3.12.39,5.2-1.68,11.17-.8,16.5.72.5,1.43.72,2.08,1.16,1.23.13,2.06-.55,3-1.43,1.11-.09,2.3-.27,3.67.18.52.72.61,1.51,1.27,2.14-.36.65-.06,1.32-.15,1.96ZM246.11,51.83c.03.37.26.74.27,1.03,0,.26-.15.66-.18.92-.14,1.49-.02,3.21-.09,4.92-.14,3.61-.03,7.63-.27,11.69-.21,3.59-.34,8.18-.53,11.69-.13,2.33-.08,5.82,0,8.51.07,2.38.14,3.97.09,5.95-.65,1.88-2.09,2.86-4.01,3.28-1.89-.69-3.53-2.12-3.66-5.12-.03-.71.26-1.34.27-2.05.03-2.53-.35-6.9-.18-10.46.26-5.35.85-11.13.8-16.5-.03-3.62.37-7.28.54-11.69.04-1.02.15-2.17.27-3.18.13-1.16.12-2.69.36-3.38.09-.27.3-.47.45-.82.41-1.01.22-1.56,1.16-2.05.14-.47-.07-.43-.09-.92.76.35.91-.38,1.43-.31.54-.79,1.26.42,1.52.92.24.08.6-.7,1.07-.41.23.45.12.91.36,1.43.17.37.52.48.63.82.51,1.63-.3,3.97-.18,5.74Z"/>
    <path class="st0" d="M99.65,75.3c-4.29.21-9.35.78-10.52,4.82-.22.17-.5.28-.71.45-.53,2.29.19,4.58.8,6.51.71,2.22,1.43,4,2.86,5.17,1.09.89,2.65,1.97,3.84,1.69.19-.17.36-.35.62-.45,2.23-.34,4.39-.66,6.42-2.05,1.06-1.81,2.11-4.15,2.23-6.6.07-1.49-.07-4.28-.71-5.53-.94-1.82-3.26-2.86-4.82-4.01Z"/>
    <path class="st0" d="M124.01,126.07s-.03.03-.06.03c.06,0,.07-.02.06-.03Z"/>
    <path class="st0" d="M212.99,84.75c-1.34.55-2.39,1.08-3.03,2.05-.5.75-1.26,2.2-1.6,3.3-.33,1.07-.4,2-.09,2.86,1.14.76,2.43,1.38,4.1,1.61.73-.55,1.63-.97,2.41-1.61.33-.27.51-.69.89-.89.52-.27,1.22-.1,1.6-.53-.39-2.45-.16-5.06.18-7.76-1.84-.08-3.05.4-4.46.98Z"/>
  </g>
  <path class="st1" d="M265.42,133.62c.1-.06.31,0,.28-.18-.17,0-.31,0-.28.18M264.49,133.42c-.23.01-.4.04-.46.08.06.05.5.14.46-.08"/>
</svg>