<?xml version="1.0" encoding="UTF-8"?>
<svg id="Layer_1" xmlns="http://www.w3.org/2000/svg" version="1.1" viewBox="0 0 1595.79 356.6">
  <!-- Generator: Adobe Illustrator 30.8.1, SVG Export Plug-In . SVG Version: 2.1.4 Build 1)  -->
  <defs>
    <style>
      .st0 {
        fill: #fff;
      }
    </style>
  </defs>
  <path class="st0" d="M826.94,128.6h23.61c1.2,8.59,8.08,14.27,16.68,14.26,8.24,0,13.12-3.66,13.12-8.91,0-6.33-8.13-7.4-17.93-8.59-14.58-1.9-32.99-7.93-32.99-25.67,0-19,13.85-28.8,37.14-28.81,20.55,0,34.18,11.81,36.58,31.65l-23.12-.16c-.72-7.77-7.11-13.13-14.88-13.12-6.57,0-11.39,3.63-11.39,8.17,0,5.38,6.49,7.39,17.96,8.72,17.49,2.03,32.93,8.7,32.93,26.39,0,15.4-13.41,29.16-38.03,29.17-22.58.01-37.29-12.17-39.69-33.08Z"/>
  <path class="st0" d="M815.37,252.6h23.61c1.2,8.59,8.08,14.27,16.68,14.26,8.24,0,13.12-3.66,13.12-8.91,0-6.33-8.13-7.4-17.93-8.59-14.58-1.9-32.99-7.93-32.99-25.67,0-19,13.85-28.8,37.14-28.81,20.55,0,34.18,11.81,36.58,31.65l-23.12-.16c-.72-7.77-7.11-13.13-14.88-13.12-6.57,0-11.39,3.63-11.39,8.17,0,5.38,6.49,7.39,17.96,8.72,17.49,2.03,32.93,8.7,32.93,26.39,0,15.4-13.41,29.16-38.03,29.17-22.58.01-37.29-12.17-39.69-33.08Z"/>
  <path class="st0" d="M506.8,71.98v18.87s-24.01.01-24.01.01l.03,69.7h-25.03v-69.69h-23.99s-.01-18.89-.01-18.89h73.01Z"/>
  <path class="st0" d="M543.49,141.52l43.24-.02v19.06s-68.2,0-68.2,0l-.04-88.58h68.23v18.86s-43.24.02-43.24.02v15.06s35.27-.02,35.27-.02v18.88s-35.25.02-35.25.02v16.73Z"/>
  <g>
    <polyline class="st0" points="625.91 114.84 625.91 114.84 625.91 113.64 625.91 113.64 625.89 71.98 601.99 71.98 602.04 160.56 625.93 160.56 625.91 115.44 625.91 115.44 625.91 115.44"/>
    <polygon class="st0" points="651.96 113.87 683.24 71.98 655.64 71.98 626.13 114.37 659.51 160.56 688.78 160.56 651.96 113.87"/>
  </g>
  <g>
    <polyline class="st0" points="941.6 114.84 941.6 114.84 941.6 113.64 941.6 113.64 941.58 71.98 917.68 71.98 917.73 160.56 941.62 160.56 941.6 115.44 941.6 115.44 941.6 115.44"/>
    <polygon class="st0" points="967.65 113.87 998.93 71.98 971.33 71.98 941.82 114.37 975.2 160.56 1004.47 160.56 967.65 113.87"/>
  </g>
  <path class="st0" d="M751.06,71.98h23.66l.04,88.58h-41.91l-15.93-88.58h-.24l1.24,88.58h-23.66l-.04-88.58h41.91l15.93,88.58h.24l-1.24-88.58Z"/>
  <path class="st0" d="M686.84,195.99h23.66l.04,88.58h-41.91l-15.93-88.58h-.24l1.24,88.58h-23.66l-.04-88.58h41.91l15.93,88.58h.24l-1.24-88.58Z"/>
  <path class="st0" d="M1406.04,195.99h23.66l.04,88.58h-41.91l-15.93-88.58h-.24l1.24,88.58h-23.66l-.04-88.58h41.91l15.93,88.58h.24l-1.24-88.58Z"/>
  <path class="st0" d="M790.4,160.56l-.04-88.58h24.97l.04,88.58h-24.97Z"/>
  <path class="st0" d="M482.8,265.21l36.2-.02v19.38s-61.1,0-61.1,0l-.12-88.56h24.97l.03,69.19Z"/>
  <path class="st0" d="M726.17,284.58l-.04-88.56h32.62c29.87-.01,47.68,16.7,47.7,44.42.01,27.72-17.78,44.22-47.65,44.23l-32.62-.09ZM751.14,265.79h8.84c12.9-.01,20.55-9.45,20.54-25.35,0-15.89-7.66-25.33-20.56-25.32h-8.84s.02,50.67.02,50.67Z"/>
  <path class="st0" d="M969.5,215.02l-37.88.02v16.49s31.67-.02,31.67-.02v18.76s-31.65.02-31.65.02l.02,34.3h-24.97l-.04-88.57h62.85v19Z"/>
  <path class="st0" d="M977.22,240.35c-.01-28.56,16.58-45.41,44.55-45.43,27.84-.01,44.34,16.82,44.35,45.38.01,28.56-16.47,45.41-44.31,45.43-27.96.01-44.58-16.83-44.59-45.38ZM1040.3,240.32c0-16.37-6.94-26.04-18.53-26.04-11.83,0-18.75,9.69-18.75,26.06,0,16.37,6.94,26.04,18.77,26.04,11.59,0,18.51-9.69,18.51-26.06Z"/>
  <path class="st0" d="M1210.86,231.39c21.51-.01,34.3,9.3,34.3,25.19,0,17.56-13.61,28-36.55,28.01h-40.5l-.04-88.57h45.28c16.25,0,25.81,6.68,25.82,17.91,0,10.75-11.34,17.21-30.58,17.22v.24s2.27,0,2.27,0ZM1204.88,214.91h-11.83s0,16.26,0,16.26h11.83c5.26,0,8.36-3.12,8.36-8.25,0-5.02-3.11-8-8.37-8ZM1209.68,265.56c5.97,0,9.56-3.35,9.55-8.97,0-5.62-3.59-8.96-9.56-8.96h-16.61s0,17.93,0,17.93h16.61Z"/>
  <path class="st0" d="M1257.74,252.16l-.03-56.14h24.97l.03,57.2c0,8.24,5.02,13.02,13.63,13.02,8.6,0,13.62-4.79,13.62-13.03l-.03-57.19h23.66l.03,56.1c.01,21.03-14.08,33.46-37.98,33.47-23.78.01-37.88-12.41-37.89-33.44Z"/>
  <path class="st0" d="M1445.38,284.59l-.04-88.57h32.62c29.87-.01,47.68,16.34,47.7,44.06.01,27.72-17.78,44.5-47.65,44.52h-32.62ZM1470.34,265.43h8.84c12.9-.01,20.55-9.45,20.54-25.35,0-15.89-7.66-25.33-20.56-25.32h-8.84s.02,50.67.02,50.67Z"/>
  <polygon class="st0" points="212.59 284.57 141.74 284.57 141.73 142.84 70.89 142.84 70.87 71.98 212.6 71.98 212.59 284.57"/>
  <polygon class="st0" points="248.03 71.98 318.89 71.98 318.89 213.71 389.74 213.71 389.76 284.57 248.03 284.58 248.03 71.98"/>
  <g>
    <line class="st0" x1="572.16" y1="195.99" x2="572.16" y2="195.99"/>
    <polygon class="st0" points="594.78 195.99 572.16 195.99 583.21 245.92 560.75 245.93 571.92 195.99 550.81 195.99 527.19 284.55 551.93 284.55 556.46 264.81 587.52 264.8 592.07 284.55 618.36 284.55 594.78 195.99"/>
  </g>
  <g>
    <polygon class="st0" points="1139.68 254.46 1113.36 251.33 1128.63 284.59 1156.35 284.59 1139.68 254.46"/>
    <path class="st0" d="M1115.58,251.25c23.3-.01,36.93-10.75,36.92-28.79,0-16.49-13.75-26.45-37.05-26.44h-37.76l.04,88.57h24.97l-.02-33.32,12.89-.03ZM1102.67,214.96h13.86c6.45,0,10.16,3.45,10.16,9.31,0,5.85-3.7,9.32-10.15,9.33h-13.86s0-18.63,0-18.63Z"/>
  </g>
</svg>